<?xml version="1.0" encoding="UTF-8" standalone="no"?>
<!DOCTYPE svg PUBLIC "-//W3C//DTD SVG 1.1//EN"
 "http://www.w3.org/Graphics/SVG/1.1/DTD/svg11.dtd">
<!-- Generated by graphviz version 2.40.1 (0)
 -->
<!-- Title: snakemake_dag Pages: 1 -->
<svg width="790pt" height="476pt"
 viewBox="0.00 0.00 790.00 476.00" xmlns="http://www.w3.org/2000/svg" xmlns:xlink="http://www.w3.org/1999/xlink">
<g id="graph0" class="graph" transform="scale(1 1) rotate(0) translate(4 472)">
<title>snakemake_dag</title>
<polygon fill="#ffffff" stroke="transparent" points="-4,4 -4,-472 786,-472 786,4 -4,4"/>
<!-- 0 -->
<g id="node1" class="node">
<title>0</title>
<path fill="none" stroke="#d85656" stroke-width="2" d="M442,-36C442,-36 370,-36 370,-36 364,-36 358,-30 358,-24 358,-24 358,-12 358,-12 358,-6 364,0 370,0 370,0 442,0 442,0 448,0 454,-6 454,-12 454,-12 454,-24 454,-24 454,-30 448,-36 442,-36"/>
<text text-anchor="middle" x="406" y="-15.5" font-family="sans" font-size="10.00" fill="#000000">make_summary</text>
</g>
<!-- 1 -->
<g id="node2" class="node">
<title>1</title>
<path fill="none" stroke="#d88556" stroke-width="2" d="M186,-180C186,-180 142,-180 142,-180 136,-180 130,-174 130,-168 130,-168 130,-156 130,-156 130,-150 136,-144 142,-144 142,-144 186,-144 186,-144 192,-144 198,-150 198,-156 198,-156 198,-168 198,-168 198,-174 192,-180 186,-180"/>
<text text-anchor="middle" x="164" y="-159.5" font-family="sans" font-size="10.00" fill="#000000">make_dag</text>
</g>
<!-- 1&#45;&gt;0 -->
<g id="edge1" class="edge">
<title>1&#45;&gt;0</title>
<path fill="none" stroke="#c0c0c0" stroke-width="2" d="M151.5834,-143.7454C139.8287,-123.9735 126.2683,-92.5161 143,-72 168.2889,-40.9911 277.9478,-27.2868 347.4369,-21.6233"/>
<polygon fill="#c0c0c0" stroke="#c0c0c0" stroke-width="2" points="348.1071,-25.0817 357.8041,-20.8135 347.5619,-18.103 348.1071,-25.0817"/>
</g>
<!-- 2 -->
<g id="node3" class="node">
<title>2</title>
<path fill="none" stroke="#afd856" stroke-width="2" d="M241.5,-108C241.5,-108 164.5,-108 164.5,-108 158.5,-108 152.5,-102 152.5,-96 152.5,-96 152.5,-84 152.5,-84 152.5,-78 158.5,-72 164.5,-72 164.5,-72 241.5,-72 241.5,-72 247.5,-72 253.5,-78 253.5,-84 253.5,-84 253.5,-96 253.5,-96 253.5,-102 247.5,-108 241.5,-108"/>
<text text-anchor="middle" x="203" y="-87.5" font-family="sans" font-size="10.00" fill="#000000">save_pinned_env</text>
</g>
<!-- 1&#45;&gt;2 -->
<g id="edge11" class="edge">
<title>1&#45;&gt;2</title>
<path fill="none" stroke="#c0c0c0" stroke-width="2" d="M173.8413,-143.8314C178.1957,-135.7925 183.4098,-126.1666 188.2169,-117.2918"/>
<polygon fill="#c0c0c0" stroke="#c0c0c0" stroke-width="2" points="191.3408,-118.8732 193.0261,-108.4133 185.1857,-115.5392 191.3408,-118.8732"/>
</g>
<!-- 2&#45;&gt;0 -->
<g id="edge2" class="edge">
<title>2&#45;&gt;0</title>
<path fill="none" stroke="#c0c0c0" stroke-width="2" d="M253.7018,-72.0171C282.419,-61.8317 318.4457,-49.0537 348.2491,-38.4831"/>
<polygon fill="#c0c0c0" stroke="#c0c0c0" stroke-width="2" points="349.4349,-41.7762 357.6897,-35.1347 347.095,-35.1789 349.4349,-41.7762"/>
</g>
<!-- 3 -->
<g id="node4" class="node">
<title>3</title>
<path fill="none" stroke="#56d882" stroke-width="2" d="M538.5,-396C538.5,-396 449.5,-396 449.5,-396 443.5,-396 437.5,-390 437.5,-384 437.5,-384 437.5,-372 437.5,-372 437.5,-366 443.5,-360 449.5,-360 449.5,-360 538.5,-360 538.5,-360 544.5,-360 550.5,-366 550.5,-372 550.5,-372 550.5,-384 550.5,-384 550.5,-390 544.5,-396 538.5,-396"/>
<text text-anchor="middle" x="494" y="-375.5" font-family="sans" font-size="10.00" fill="#000000">process_ccs_PDCoV</text>
</g>
<!-- 3&#45;&gt;0 -->
<g id="edge3" class="edge">
<title>3&#45;&gt;0</title>
<path fill="none" stroke="#c0c0c0" stroke-width="2" d="M550.5598,-364.3897C611.2386,-346.0169 699,-306.8513 699,-234 699,-234 699,-234 699,-162 699,-118.9187 695.9865,-99.7108 663,-72 633.4671,-47.1905 530.7075,-31.5869 464.4175,-23.8579"/>
<polygon fill="#c0c0c0" stroke="#c0c0c0" stroke-width="2" points="464.4399,-20.3379 454.1083,-22.6848 463.6485,-27.293 464.4399,-20.3379"/>
</g>
<!-- 9 -->
<g id="node10" class="node">
<title>9</title>
<path fill="none" stroke="#59d856" stroke-width="2" d="M459.5,-324C459.5,-324 394.5,-324 394.5,-324 388.5,-324 382.5,-318 382.5,-312 382.5,-312 382.5,-300 382.5,-300 382.5,-294 388.5,-288 394.5,-288 394.5,-288 459.5,-288 459.5,-288 465.5,-288 471.5,-294 471.5,-300 471.5,-300 471.5,-312 471.5,-312 471.5,-318 465.5,-324 459.5,-324"/>
<text text-anchor="middle" x="427" y="-303.5" font-family="sans" font-size="10.00" fill="#000000">count_variants</text>
</g>
<!-- 3&#45;&gt;9 -->
<g id="edge20" class="edge">
<title>3&#45;&gt;9</title>
<path fill="none" stroke="#c0c0c0" stroke-width="2" d="M477.0931,-359.8314C469.2187,-351.3694 459.708,-341.1489 451.0987,-331.8971"/>
<polygon fill="#c0c0c0" stroke="#c0c0c0" stroke-width="2" points="453.5092,-329.3497 444.1346,-324.4133 448.3847,-334.1183 453.5092,-329.3497"/>
</g>
<!-- 10 -->
<g id="node11" class="node">
<title>10</title>
<path fill="none" stroke="#80d856" stroke-width="2" d="M541.5,-252C541.5,-252 458.5,-252 458.5,-252 452.5,-252 446.5,-246 446.5,-240 446.5,-240 446.5,-228 446.5,-228 446.5,-222 452.5,-216 458.5,-216 458.5,-216 541.5,-216 541.5,-216 547.5,-216 553.5,-222 553.5,-228 553.5,-228 553.5,-240 553.5,-240 553.5,-246 547.5,-252 541.5,-252"/>
<text text-anchor="middle" x="500" y="-231.5" font-family="sans" font-size="10.00" fill="#000000">fit_gAPN_titrations</text>
</g>
<!-- 3&#45;&gt;10 -->
<g id="edge21" class="edge">
<title>3&#45;&gt;10</title>
<path fill="none" stroke="#c0c0c0" stroke-width="2" d="M494.7599,-359.7623C495.7833,-335.201 497.6147,-291.2474 498.8186,-262.3541"/>
<polygon fill="#c0c0c0" stroke="#c0c0c0" stroke-width="2" points="502.3268,-262.2267 499.2463,-252.0896 495.3329,-261.9352 502.3268,-262.2267"/>
</g>
<!-- 11 -->
<g id="node12" class="node">
<title>11</title>
<path fill="none" stroke="#56d8d8" stroke-width="2" d="M640,-252C640,-252 584,-252 584,-252 578,-252 572,-246 572,-240 572,-240 572,-228 572,-228 572,-222 578,-216 584,-216 584,-216 640,-216 640,-216 646,-216 652,-222 652,-228 652,-228 652,-240 652,-240 652,-246 646,-252 640,-252"/>
<text text-anchor="middle" x="612" y="-231.5" font-family="sans" font-size="10.00" fill="#000000">fit_hAPN_MFI</text>
</g>
<!-- 3&#45;&gt;11 -->
<g id="edge23" class="edge">
<title>3&#45;&gt;11</title>
<path fill="none" stroke="#c0c0c0" stroke-width="2" d="M508.9448,-359.7623C529.6033,-334.5518 567.004,-288.9103 590.6165,-260.0952"/>
<polygon fill="#c0c0c0" stroke="#c0c0c0" stroke-width="2" points="593.5455,-262.0428 597.1766,-252.0896 588.1311,-257.606 593.5455,-262.0428"/>
</g>
<!-- 12 -->
<g id="node13" class="node">
<title>12</title>
<path fill="none" stroke="#d8ac56" stroke-width="2" d="M378,-252C378,-252 322,-252 322,-252 316,-252 310,-246 310,-240 310,-240 310,-228 310,-228 310,-222 316,-216 322,-216 322,-216 378,-216 378,-216 384,-216 390,-222 390,-228 390,-228 390,-240 390,-240 390,-246 384,-252 378,-252"/>
<text text-anchor="middle" x="350" y="-231.5" font-family="sans" font-size="10.00" fill="#000000">fit_pAPN_MFI</text>
</g>
<!-- 3&#45;&gt;12 -->
<g id="edge25" class="edge">
<title>3&#45;&gt;12</title>
<path fill="none" stroke="#c0c0c0" stroke-width="2" d="M437.3618,-364.4393C414.3966,-356.2642 389.4618,-343.5196 373,-324 358.5254,-306.8367 352.9919,-281.7241 350.9556,-262.3841"/>
<polygon fill="#c0c0c0" stroke="#c0c0c0" stroke-width="2" points="354.4369,-262.0093 350.1495,-252.3207 347.4592,-262.5683 354.4369,-262.0093"/>
</g>
<!-- 4 -->
<g id="node5" class="node">
<title>4</title>
<path fill="none" stroke="#d6d856" stroke-width="2" d="M770,-468C770,-468 618,-468 618,-468 612,-468 606,-462 606,-456 606,-456 606,-444 606,-444 606,-438 612,-432 618,-432 618,-432 770,-432 770,-432 776,-432 782,-438 782,-444 782,-444 782,-456 782,-456 782,-462 776,-468 770,-468"/>
<text text-anchor="middle" x="694" y="-453" font-family="sans" font-size="10.00" fill="#000000">get_ccs</text>
<text text-anchor="middle" x="694" y="-442" font-family="sans" font-size="10.00" fill="#000000">pacbioRun: lib55_PDCoV_230126</text>
</g>
<!-- 4&#45;&gt;3 -->
<g id="edge12" class="edge">
<title>4&#45;&gt;3</title>
<path fill="none" stroke="#c0c0c0" stroke-width="2" d="M643.7897,-431.9243C616.4485,-422.0815 582.4406,-409.8386 553.7425,-399.5073"/>
<polygon fill="#c0c0c0" stroke="#c0c0c0" stroke-width="2" points="554.8254,-396.1773 544.2309,-396.0831 552.4543,-402.7635 554.8254,-396.1773"/>
</g>
<!-- 8 -->
<g id="node9" class="node">
<title>8</title>
<path fill="none" stroke="#56d8a9" stroke-width="2" d="M338.5,-396C338.5,-396 237.5,-396 237.5,-396 231.5,-396 225.5,-390 225.5,-384 225.5,-384 225.5,-372 225.5,-372 225.5,-366 231.5,-360 237.5,-360 237.5,-360 338.5,-360 338.5,-360 344.5,-360 350.5,-366 350.5,-372 350.5,-372 350.5,-384 350.5,-384 350.5,-390 344.5,-396 338.5,-396"/>
<text text-anchor="middle" x="288" y="-375.5" font-family="sans" font-size="10.00" fill="#000000">process_ccs_panDCoV</text>
</g>
<!-- 4&#45;&gt;8 -->
<g id="edge16" class="edge">
<title>4&#45;&gt;8</title>
<path fill="none" stroke="#c0c0c0" stroke-width="2" d="M605.9789,-433.6246C602.9497,-433.0743 599.9499,-432.5314 597,-432 516.2762,-417.457 423.5799,-401.3347 360.941,-390.5254"/>
<polygon fill="#c0c0c0" stroke="#c0c0c0" stroke-width="2" points="361.2157,-387.0212 350.7663,-388.7707 360.026,-393.9193 361.2157,-387.0212"/>
</g>
<!-- 5 -->
<g id="node6" class="node">
<title>5</title>
<path fill="none" stroke="#d6d856" stroke-width="2" d="M164,-468C164,-468 12,-468 12,-468 6,-468 0,-462 0,-456 0,-456 0,-444 0,-444 0,-438 6,-432 12,-432 12,-432 164,-432 164,-432 170,-432 176,-438 176,-444 176,-444 176,-456 176,-456 176,-462 170,-468 164,-468"/>
<text text-anchor="middle" x="88" y="-453" font-family="sans" font-size="10.00" fill="#000000">get_ccs</text>
<text text-anchor="middle" x="88" y="-442" font-family="sans" font-size="10.00" fill="#000000">pacbioRun: lib56_PDCoV_230126</text>
</g>
<!-- 5&#45;&gt;3 -->
<g id="edge13" class="edge">
<title>5&#45;&gt;3</title>
<path fill="none" stroke="#c0c0c0" stroke-width="2" d="M176.0211,-433.6246C179.0503,-433.0743 182.0501,-432.5314 185,-432 268.3892,-416.9769 364.5546,-400.2683 427.164,-389.4723"/>
<polygon fill="#c0c0c0" stroke="#c0c0c0" stroke-width="2" points="428.0401,-392.873 437.3004,-387.7255 426.8513,-385.9746 428.0401,-392.873"/>
</g>
<!-- 5&#45;&gt;8 -->
<g id="edge17" class="edge">
<title>5&#45;&gt;8</title>
<path fill="none" stroke="#c0c0c0" stroke-width="2" d="M138.2103,-431.9243C165.5515,-422.0815 199.5594,-409.8386 228.2575,-399.5073"/>
<polygon fill="#c0c0c0" stroke="#c0c0c0" stroke-width="2" points="229.5457,-402.7635 237.7691,-396.0831 227.1746,-396.1773 229.5457,-402.7635"/>
</g>
<!-- 6 -->
<g id="node7" class="node">
<title>6</title>
<path fill="none" stroke="#d6d856" stroke-width="2" d="M370,-468C370,-468 206,-468 206,-468 200,-468 194,-462 194,-456 194,-456 194,-444 194,-444 194,-438 200,-432 206,-432 206,-432 370,-432 370,-432 376,-432 382,-438 382,-444 382,-444 382,-456 382,-456 382,-462 376,-468 370,-468"/>
<text text-anchor="middle" x="288" y="-453" font-family="sans" font-size="10.00" fill="#000000">get_ccs</text>
<text text-anchor="middle" x="288" y="-442" font-family="sans" font-size="10.00" fill="#000000">pacbioRun: lib80_panDCoV_240206</text>
</g>
<!-- 6&#45;&gt;3 -->
<g id="edge14" class="edge">
<title>6&#45;&gt;3</title>
<path fill="none" stroke="#c0c0c0" stroke-width="2" d="M339.7166,-431.9243C367.878,-422.0815 402.9062,-409.8386 432.4653,-399.5073"/>
<polygon fill="#c0c0c0" stroke="#c0c0c0" stroke-width="2" points="433.9769,-402.6866 442.2621,-396.0831 431.6673,-396.0786 433.9769,-402.6866"/>
</g>
<!-- 6&#45;&gt;8 -->
<g id="edge18" class="edge">
<title>6&#45;&gt;8</title>
<path fill="none" stroke="#c0c0c0" stroke-width="2" d="M288,-431.8314C288,-424.131 288,-414.9743 288,-406.4166"/>
<polygon fill="#c0c0c0" stroke="#c0c0c0" stroke-width="2" points="291.5001,-406.4132 288,-396.4133 284.5001,-406.4133 291.5001,-406.4132"/>
</g>
<!-- 7 -->
<g id="node8" class="node">
<title>7</title>
<path fill="none" stroke="#d6d856" stroke-width="2" d="M576,-468C576,-468 412,-468 412,-468 406,-468 400,-462 400,-456 400,-456 400,-444 400,-444 400,-438 406,-432 412,-432 412,-432 576,-432 576,-432 582,-432 588,-438 588,-444 588,-444 588,-456 588,-456 588,-462 582,-468 576,-468"/>
<text text-anchor="middle" x="494" y="-453" font-family="sans" font-size="10.00" fill="#000000">get_ccs</text>
<text text-anchor="middle" x="494" y="-442" font-family="sans" font-size="10.00" fill="#000000">pacbioRun: lib81_panDCoV_240206</text>
</g>
<!-- 7&#45;&gt;3 -->
<g id="edge15" class="edge">
<title>7&#45;&gt;3</title>
<path fill="none" stroke="#c0c0c0" stroke-width="2" d="M494,-431.8314C494,-424.131 494,-414.9743 494,-406.4166"/>
<polygon fill="#c0c0c0" stroke="#c0c0c0" stroke-width="2" points="497.5001,-406.4132 494,-396.4133 490.5001,-406.4133 497.5001,-406.4132"/>
</g>
<!-- 7&#45;&gt;8 -->
<g id="edge19" class="edge">
<title>7&#45;&gt;8</title>
<path fill="none" stroke="#c0c0c0" stroke-width="2" d="M442.2834,-431.9243C414.122,-422.0815 379.0938,-409.8386 349.5347,-399.5073"/>
<polygon fill="#c0c0c0" stroke="#c0c0c0" stroke-width="2" points="350.3327,-396.0786 339.7379,-396.0831 348.0231,-402.6866 350.3327,-396.0786"/>
</g>
<!-- 8&#45;&gt;0 -->
<g id="edge4" class="edge">
<title>8&#45;&gt;0</title>
<path fill="none" stroke="#c0c0c0" stroke-width="2" d="M286.7568,-359.8247C284.9994,-332.5213 282,-279.2893 282,-234 282,-234 282,-234 282,-162 282,-109.466 329.975,-66.5723 366.2433,-41.6514"/>
<polygon fill="#c0c0c0" stroke="#c0c0c0" stroke-width="2" points="368.3296,-44.4671 374.7096,-36.0086 364.4473,-38.6423 368.3296,-44.4671"/>
</g>
<!-- 9&#45;&gt;0 -->
<g id="edge5" class="edge">
<title>9&#45;&gt;0</title>
<path fill="none" stroke="#c0c0c0" stroke-width="2" d="M424.6046,-287.7535C420.1518,-252.8988 410.7152,-174.4047 407,-108 405.8507,-87.4571 405.6191,-64.237 405.6652,-46.5283"/>
<polygon fill="#c0c0c0" stroke="#c0c0c0" stroke-width="2" points="409.1665,-46.3076 405.7241,-36.2876 402.1666,-46.2672 409.1665,-46.3076"/>
</g>
<!-- 9&#45;&gt;10 -->
<g id="edge22" class="edge">
<title>9&#45;&gt;10</title>
<path fill="none" stroke="#c0c0c0" stroke-width="2" d="M445.421,-287.8314C454.1529,-279.219 464.7317,-268.7851 474.2423,-259.4048"/>
<polygon fill="#c0c0c0" stroke="#c0c0c0" stroke-width="2" points="476.923,-261.6769 481.5849,-252.1628 472.0075,-256.6931 476.923,-261.6769"/>
</g>
<!-- 9&#45;&gt;11 -->
<g id="edge24" class="edge">
<title>9&#45;&gt;11</title>
<path fill="none" stroke="#c0c0c0" stroke-width="2" d="M471.7833,-288.5708C499.0458,-277.9606 533.9234,-264.3866 562.0731,-253.431"/>
<polygon fill="#c0c0c0" stroke="#c0c0c0" stroke-width="2" points="563.6762,-256.5629 571.7259,-249.6742 561.1373,-250.0395 563.6762,-256.5629"/>
</g>
<!-- 9&#45;&gt;12 -->
<g id="edge26" class="edge">
<title>9&#45;&gt;12</title>
<path fill="none" stroke="#c0c0c0" stroke-width="2" d="M407.5696,-287.8314C398.268,-279.1337 386.9796,-268.5783 376.8714,-259.1265"/>
<polygon fill="#c0c0c0" stroke="#c0c0c0" stroke-width="2" points="379.1189,-256.4363 369.4241,-252.1628 374.3379,-261.5493 379.1189,-256.4363"/>
</g>
<!-- 10&#45;&gt;0 -->
<g id="edge6" class="edge">
<title>10&#45;&gt;0</title>
<path fill="none" stroke="#c0c0c0" stroke-width="2" d="M475.5925,-215.9201C464.3905,-206.4097 451.8772,-193.8543 444,-180 419.7778,-137.3982 410.9713,-80.1204 407.7861,-46.3241"/>
<polygon fill="#c0c0c0" stroke="#c0c0c0" stroke-width="2" points="411.2626,-45.8964 406.9371,-36.2248 404.2872,-46.4829 411.2626,-45.8964"/>
</g>
<!-- 13 -->
<g id="node14" class="node">
<title>13</title>
<path fill="none" stroke="#56a9d8" stroke-width="2" d="M535,-180C535,-180 465,-180 465,-180 459,-180 453,-174 453,-168 453,-168 453,-156 453,-156 453,-150 459,-144 465,-144 465,-144 535,-144 535,-144 541,-144 547,-150 547,-156 547,-156 547,-168 547,-168 547,-174 541,-180 535,-180"/>
<text text-anchor="middle" x="500" y="-159.5" font-family="sans" font-size="10.00" fill="#000000">collapse_scores</text>
</g>
<!-- 10&#45;&gt;13 -->
<g id="edge27" class="edge">
<title>10&#45;&gt;13</title>
<path fill="none" stroke="#c0c0c0" stroke-width="2" d="M500,-215.8314C500,-208.131 500,-198.9743 500,-190.4166"/>
<polygon fill="#c0c0c0" stroke="#c0c0c0" stroke-width="2" points="503.5001,-190.4132 500,-180.4133 496.5001,-190.4133 503.5001,-190.4132"/>
</g>
<!-- 11&#45;&gt;0 -->
<g id="edge7" class="edge">
<title>11&#45;&gt;0</title>
<path fill="none" stroke="#c0c0c0" stroke-width="2" d="M623.5566,-215.9797C642.7666,-183.5113 675.9618,-114.6105 642,-72 620.1933,-44.6401 526.9411,-30.0281 464.3906,-23.1545"/>
<polygon fill="#c0c0c0" stroke="#c0c0c0" stroke-width="2" points="464.5608,-19.653 454.2471,-22.0776 463.8217,-26.6139 464.5608,-19.653"/>
</g>
<!-- 11&#45;&gt;13 -->
<g id="edge28" class="edge">
<title>11&#45;&gt;13</title>
<path fill="none" stroke="#c0c0c0" stroke-width="2" d="M583.7377,-215.8314C569.5448,-206.7074 552.1718,-195.539 536.9364,-185.7449"/>
<polygon fill="#c0c0c0" stroke="#c0c0c0" stroke-width="2" points="538.5578,-182.6263 528.2533,-180.1628 534.7724,-188.5146 538.5578,-182.6263"/>
</g>
<!-- 12&#45;&gt;0 -->
<g id="edge8" class="edge">
<title>12&#45;&gt;0</title>
<path fill="none" stroke="#c0c0c0" stroke-width="2" d="M350.1988,-215.9336C351.0487,-185.391 355.045,-121.9948 373,-72 376.3817,-62.5838 381.5331,-53.0338 386.7673,-44.6367"/>
<polygon fill="#c0c0c0" stroke="#c0c0c0" stroke-width="2" points="389.8479,-46.3212 392.3997,-36.0382 383.9923,-42.4855 389.8479,-46.3212"/>
</g>
<!-- 12&#45;&gt;13 -->
<g id="edge29" class="edge">
<title>12&#45;&gt;13</title>
<path fill="none" stroke="#c0c0c0" stroke-width="2" d="M387.8513,-215.8314C407.7346,-206.2874 432.2782,-194.5065 453.3305,-184.4013"/>
<polygon fill="#c0c0c0" stroke="#c0c0c0" stroke-width="2" points="454.9202,-187.5207 462.4209,-180.038 451.891,-181.21 454.9202,-187.5207"/>
</g>
<!-- 13&#45;&gt;0 -->
<g id="edge9" class="edge">
<title>13&#45;&gt;0</title>
<path fill="none" stroke="#c0c0c0" stroke-width="2" d="M488.0948,-143.7623C471.7086,-118.66 442.0997,-73.3017 423.2771,-44.4671"/>
<polygon fill="#c0c0c0" stroke="#c0c0c0" stroke-width="2" points="426.2056,-42.5502 417.8085,-36.0896 420.3439,-46.3766 426.2056,-42.5502"/>
</g>
<!-- 14 -->
<g id="node15" class="node">
<title>14</title>
<path fill="none" stroke="#5682d8" stroke-width="2" d="M621,-108C621,-108 503,-108 503,-108 497,-108 491,-102 491,-96 491,-96 491,-84 491,-84 491,-78 497,-72 503,-72 503,-72 621,-72 621,-72 627,-72 633,-78 633,-84 633,-84 633,-96 633,-96 633,-102 627,-108 621,-108"/>
<text text-anchor="middle" x="562" y="-87.5" font-family="sans" font-size="10.00" fill="#000000">interactive_heatmap_plot</text>
</g>
<!-- 13&#45;&gt;14 -->
<g id="edge30" class="edge">
<title>13&#45;&gt;14</title>
<path fill="none" stroke="#c0c0c0" stroke-width="2" d="M515.6452,-143.8314C522.8591,-135.454 531.557,-125.3531 539.4605,-116.1749"/>
<polygon fill="#c0c0c0" stroke="#c0c0c0" stroke-width="2" points="542.2711,-118.2748 546.1441,-108.4133 536.9667,-113.7071 542.2711,-118.2748"/>
</g>
<!-- 14&#45;&gt;0 -->
<g id="edge10" class="edge">
<title>14&#45;&gt;0</title>
<path fill="none" stroke="#c0c0c0" stroke-width="2" d="M522.6346,-71.8314C501.8633,-62.2446 476.2017,-50.4008 454.2419,-40.2655"/>
<polygon fill="#c0c0c0" stroke="#c0c0c0" stroke-width="2" points="455.6286,-37.0508 445.0823,-36.038 452.6952,-43.4065 455.6286,-37.0508"/>
</g>
</g>
</svg>
