<?xml version="1.0" encoding="UTF-8" standalone="no"?>
<!DOCTYPE svg PUBLIC "-//W3C//DTD SVG 1.1//EN"
 "http://www.w3.org/Graphics/SVG/1.1/DTD/svg11.dtd">
<!-- Generated by graphviz version 2.50.0 (0)
 -->
<!-- Title: snakemake_dag Pages: 1 -->
<svg width="476pt" height="476pt"
 viewBox="0.00 0.00 476.00 476.00" xmlns="http://www.w3.org/2000/svg" xmlns:xlink="http://www.w3.org/1999/xlink">
<g id="graph0" class="graph" transform="scale(1 1) rotate(0) translate(4 472)">
<title>snakemake_dag</title>
<polygon fill="white" stroke="transparent" points="-4,4 -4,-472 472,-472 472,4 -4,4"/>
<!-- 0 -->
<g id="node1" class="node">
<title>0</title>
<path fill="none" stroke="#d88556" stroke-width="2" d="M270,-36C270,-36 199,-36 199,-36 193,-36 187,-30 187,-24 187,-24 187,-12 187,-12 187,-6 193,0 199,0 199,0 270,0 270,0 276,0 282,-6 282,-12 282,-12 282,-24 282,-24 282,-30 276,-36 270,-36"/>
<text text-anchor="middle" x="234.5" y="-15.5" font-family="sans" font-size="10.00">make_summary</text>
</g>
<!-- 1 -->
<g id="node2" class="node">
<title>1</title>
<path fill="none" stroke="#56d89a" stroke-width="2" d="M55,-108C55,-108 12,-108 12,-108 6,-108 0,-102 0,-96 0,-96 0,-84 0,-84 0,-78 6,-72 12,-72 12,-72 55,-72 55,-72 61,-72 67,-78 67,-84 67,-84 67,-96 67,-96 67,-102 61,-108 55,-108"/>
<text text-anchor="middle" x="33.5" y="-87.5" font-family="sans" font-size="10.00">make_dag</text>
</g>
<!-- 1&#45;&gt;0 -->
<g id="edge1" class="edge">
<title>1&#45;&gt;0</title>
<path fill="none" stroke="grey" stroke-width="2" d="M67.06,-77.08C71.9,-75.37 76.83,-73.64 81.5,-72 113.2,-60.9 148.64,-48.61 177.43,-38.67"/>
<polygon fill="grey" stroke="grey" stroke-width="2" points="178.61,-41.96 186.92,-35.39 176.32,-35.34 178.61,-41.96"/>
</g>
<!-- 2 -->
<g id="node3" class="node">
<title>2</title>
<path fill="none" stroke="#d85656" stroke-width="2" d="M302,-396C302,-396 213,-396 213,-396 207,-396 201,-390 201,-384 201,-384 201,-372 201,-372 201,-366 207,-360 213,-360 213,-360 302,-360 302,-360 308,-360 314,-366 314,-372 314,-372 314,-384 314,-384 314,-390 308,-396 302,-396"/>
<text text-anchor="middle" x="257.5" y="-375.5" font-family="sans" font-size="10.00">process_ccs_PDCoV</text>
</g>
<!-- 2&#45;&gt;0 -->
<g id="edge2" class="edge">
<title>2&#45;&gt;0</title>
<path fill="none" stroke="grey" stroke-width="2" d="M211.94,-359.9C164.03,-338.61 95.5,-297.27 95.5,-235 95.5,-235 95.5,-235 95.5,-161 95.5,-106.16 149.1,-64.67 189.74,-41.1"/>
<polygon fill="grey" stroke="grey" stroke-width="2" points="191.7,-44.01 198.7,-36.06 188.27,-37.91 191.7,-44.01"/>
</g>
<!-- 5 -->
<g id="node6" class="node">
<title>5</title>
<path fill="none" stroke="#70d856" stroke-width="2" d="M290,-324C290,-324 225,-324 225,-324 219,-324 213,-318 213,-312 213,-312 213,-300 213,-300 213,-294 219,-288 225,-288 225,-288 290,-288 290,-288 296,-288 302,-294 302,-300 302,-300 302,-312 302,-312 302,-318 296,-324 290,-324"/>
<text text-anchor="middle" x="257.5" y="-303.5" font-family="sans" font-size="10.00">count_variants</text>
</g>
<!-- 2&#45;&gt;5 -->
<g id="edge11" class="edge">
<title>2&#45;&gt;5</title>
<path fill="none" stroke="grey" stroke-width="2" d="M257.5,-359.7C257.5,-351.98 257.5,-342.71 257.5,-334.11"/>
<polygon fill="grey" stroke="grey" stroke-width="2" points="261,-334.1 257.5,-324.1 254,-334.1 261,-334.1"/>
</g>
<!-- 6 -->
<g id="node7" class="node">
<title>6</title>
<path fill="none" stroke="#d8b456" stroke-width="2" d="M219,-252C219,-252 136,-252 136,-252 130,-252 124,-246 124,-240 124,-240 124,-228 124,-228 124,-222 130,-216 136,-216 136,-216 219,-216 219,-216 225,-216 231,-222 231,-228 231,-228 231,-240 231,-240 231,-246 225,-252 219,-252"/>
<text text-anchor="middle" x="177.5" y="-231.5" font-family="sans" font-size="10.00">fit_gAPN_titrations</text>
</g>
<!-- 2&#45;&gt;6 -->
<g id="edge12" class="edge">
<title>2&#45;&gt;6</title>
<path fill="none" stroke="grey" stroke-width="2" d="M235.37,-359.94C224.38,-350.43 211.73,-337.75 203.5,-324 192.09,-304.95 185.43,-280.59 181.71,-262.18"/>
<polygon fill="grey" stroke="grey" stroke-width="2" points="185.11,-261.3 179.85,-252.1 178.23,-262.57 185.11,-261.3"/>
</g>
<!-- 7 -->
<g id="node8" class="node">
<title>7</title>
<path fill="none" stroke="#56d86b" stroke-width="2" d="M357,-252C357,-252 300,-252 300,-252 294,-252 288,-246 288,-240 288,-240 288,-228 288,-228 288,-222 294,-216 300,-216 300,-216 357,-216 357,-216 363,-216 369,-222 369,-228 369,-228 369,-240 369,-240 369,-246 363,-252 357,-252"/>
<text text-anchor="middle" x="328.5" y="-231.5" font-family="sans" font-size="10.00">fit_hAPN_MFI</text>
</g>
<!-- 2&#45;&gt;7 -->
<g id="edge14" class="edge">
<title>2&#45;&gt;7</title>
<path fill="none" stroke="grey" stroke-width="2" d="M279.96,-359.9C290.81,-350.47 303.06,-337.87 310.5,-324 320.78,-304.84 325.21,-280.49 327.11,-262.11"/>
<polygon fill="grey" stroke="grey" stroke-width="2" points="330.6,-262.31 327.96,-252.05 323.63,-261.72 330.6,-262.31"/>
</g>
<!-- 8 -->
<g id="node9" class="node">
<title>8</title>
<path fill="none" stroke="#ced856" stroke-width="2" d="M456,-252C456,-252 399,-252 399,-252 393,-252 387,-246 387,-240 387,-240 387,-228 387,-228 387,-222 393,-216 399,-216 399,-216 456,-216 456,-216 462,-216 468,-222 468,-228 468,-228 468,-240 468,-240 468,-246 462,-252 456,-252"/>
<text text-anchor="middle" x="427.5" y="-231.5" font-family="sans" font-size="10.00">fit_pAPN_MFI</text>
</g>
<!-- 2&#45;&gt;8 -->
<g id="edge16" class="edge">
<title>2&#45;&gt;8</title>
<path fill="none" stroke="grey" stroke-width="2" d="M283.09,-359.86C297.62,-349.83 315.95,-336.69 331.5,-324 356.88,-303.29 384.11,-277.68 403.07,-259.26"/>
<polygon fill="grey" stroke="grey" stroke-width="2" points="405.7,-261.58 410.4,-252.09 400.81,-256.58 405.7,-261.58"/>
</g>
<!-- 3 -->
<g id="node4" class="node">
<title>3</title>
<path fill="none" stroke="#56b1d8" stroke-width="2" d="M237,-468C237,-468 84,-468 84,-468 78,-468 72,-462 72,-456 72,-456 72,-444 72,-444 72,-438 78,-432 84,-432 84,-432 237,-432 237,-432 243,-432 249,-438 249,-444 249,-444 249,-456 249,-456 249,-462 243,-468 237,-468"/>
<text text-anchor="middle" x="160.5" y="-453" font-family="sans" font-size="10.00">get_ccs</text>
<text text-anchor="middle" x="160.5" y="-442" font-family="sans" font-size="10.00">pacbioRun: lib55_PDCoV_230126</text>
</g>
<!-- 3&#45;&gt;2 -->
<g id="edge9" class="edge">
<title>3&#45;&gt;2</title>
<path fill="none" stroke="grey" stroke-width="2" d="M184.48,-431.7C196.81,-422.8 212.02,-411.82 225.35,-402.2"/>
<polygon fill="grey" stroke="grey" stroke-width="2" points="227.74,-404.79 233.8,-396.1 223.64,-399.12 227.74,-404.79"/>
</g>
<!-- 4 -->
<g id="node5" class="node">
<title>4</title>
<path fill="none" stroke="#56b1d8" stroke-width="2" d="M432,-468C432,-468 279,-468 279,-468 273,-468 267,-462 267,-456 267,-456 267,-444 267,-444 267,-438 273,-432 279,-432 279,-432 432,-432 432,-432 438,-432 444,-438 444,-444 444,-444 444,-456 444,-456 444,-462 438,-468 432,-468"/>
<text text-anchor="middle" x="355.5" y="-453" font-family="sans" font-size="10.00">get_ccs</text>
<text text-anchor="middle" x="355.5" y="-442" font-family="sans" font-size="10.00">pacbioRun: lib56_PDCoV_230126</text>
</g>
<!-- 4&#45;&gt;2 -->
<g id="edge10" class="edge">
<title>4&#45;&gt;2</title>
<path fill="none" stroke="grey" stroke-width="2" d="M331.53,-431.88C318.95,-422.89 303.37,-411.76 289.75,-402.03"/>
<polygon fill="grey" stroke="grey" stroke-width="2" points="291.74,-399.15 281.57,-396.19 287.67,-404.85 291.74,-399.15"/>
</g>
<!-- 5&#45;&gt;0 -->
<g id="edge3" class="edge">
<title>5&#45;&gt;0</title>
<path fill="none" stroke="grey" stroke-width="2" d="M256.13,-287.97C252.3,-240.29 241.43,-105.18 236.72,-46.63"/>
<polygon fill="grey" stroke="grey" stroke-width="2" points="240.18,-45.99 235.89,-36.31 233.2,-46.55 240.18,-45.99"/>
</g>
<!-- 5&#45;&gt;6 -->
<g id="edge13" class="edge">
<title>5&#45;&gt;6</title>
<path fill="none" stroke="grey" stroke-width="2" d="M237.72,-287.7C227.75,-278.97 215.49,-268.24 204.64,-258.75"/>
<polygon fill="grey" stroke="grey" stroke-width="2" points="206.88,-256.06 197.05,-252.1 202.27,-261.32 206.88,-256.06"/>
</g>
<!-- 5&#45;&gt;7 -->
<g id="edge15" class="edge">
<title>5&#45;&gt;7</title>
<path fill="none" stroke="grey" stroke-width="2" d="M275.05,-287.7C283.73,-279.14 294.36,-268.66 303.85,-259.3"/>
<polygon fill="grey" stroke="grey" stroke-width="2" points="306.49,-261.62 311.15,-252.1 301.57,-256.63 306.49,-261.62"/>
</g>
<!-- 5&#45;&gt;8 -->
<g id="edge17" class="edge">
<title>5&#45;&gt;8</title>
<path fill="none" stroke="grey" stroke-width="2" d="M299.09,-287.88C322.79,-278.11 352.66,-265.82 377.63,-255.54"/>
<polygon fill="grey" stroke="grey" stroke-width="2" points="379.02,-258.75 386.93,-251.71 376.35,-252.28 379.02,-258.75"/>
</g>
<!-- 6&#45;&gt;0 -->
<g id="edge4" class="edge">
<title>6&#45;&gt;0</title>
<path fill="none" stroke="grey" stroke-width="2" d="M177.78,-215.99C178.77,-185.99 183.06,-122.13 201.5,-72 204.96,-62.59 210.23,-53.05 215.55,-44.72"/>
<polygon fill="grey" stroke="grey" stroke-width="2" points="218.6,-46.46 221.26,-36.2 212.78,-42.56 218.6,-46.46"/>
</g>
<!-- 9 -->
<g id="node10" class="node">
<title>9</title>
<path fill="none" stroke="#56d8c9" stroke-width="2" d="M363.5,-180C363.5,-180 293.5,-180 293.5,-180 287.5,-180 281.5,-174 281.5,-168 281.5,-168 281.5,-156 281.5,-156 281.5,-150 287.5,-144 293.5,-144 293.5,-144 363.5,-144 363.5,-144 369.5,-144 375.5,-150 375.5,-156 375.5,-156 375.5,-168 375.5,-168 375.5,-174 369.5,-180 363.5,-180"/>
<text text-anchor="middle" x="328.5" y="-159.5" font-family="sans" font-size="10.00">collapse_scores</text>
</g>
<!-- 6&#45;&gt;9 -->
<g id="edge18" class="edge">
<title>6&#45;&gt;9</title>
<path fill="none" stroke="grey" stroke-width="2" d="M214.44,-215.88C234.99,-206.35 260.75,-194.41 282.59,-184.28"/>
<polygon fill="grey" stroke="grey" stroke-width="2" points="284.08,-187.45 291.68,-180.07 281.14,-181.1 284.08,-187.45"/>
</g>
<!-- 7&#45;&gt;0 -->
<g id="edge5" class="edge">
<title>7&#45;&gt;0</title>
<path fill="none" stroke="grey" stroke-width="2" d="M354.01,-215.94C395.86,-185.87 470.79,-121.89 432.5,-72 415.44,-49.77 344.42,-34.83 292.3,-26.63"/>
<polygon fill="grey" stroke="grey" stroke-width="2" points="292.57,-23.13 282.15,-25.08 291.51,-30.05 292.57,-23.13"/>
</g>
<!-- 7&#45;&gt;9 -->
<g id="edge19" class="edge">
<title>7&#45;&gt;9</title>
<path fill="none" stroke="grey" stroke-width="2" d="M328.5,-215.7C328.5,-207.98 328.5,-198.71 328.5,-190.11"/>
<polygon fill="grey" stroke="grey" stroke-width="2" points="332,-190.1 328.5,-180.1 325,-190.1 332,-190.1"/>
</g>
<!-- 8&#45;&gt;0 -->
<g id="edge6" class="edge">
<title>8&#45;&gt;0</title>
<path fill="none" stroke="grey" stroke-width="2" d="M437.7,-215.85C455.22,-183.91 486.06,-114.7 452.5,-72 432.89,-47.05 349.9,-32.39 292.18,-25.03"/>
<polygon fill="grey" stroke="grey" stroke-width="2" points="292.43,-21.53 282.07,-23.78 291.57,-28.48 292.43,-21.53"/>
</g>
<!-- 8&#45;&gt;9 -->
<g id="edge20" class="edge">
<title>8&#45;&gt;9</title>
<path fill="none" stroke="grey" stroke-width="2" d="M403.28,-215.88C390.58,-206.89 374.84,-195.76 361.08,-186.03"/>
<polygon fill="grey" stroke="grey" stroke-width="2" points="363,-183.11 352.81,-180.19 358.96,-188.82 363,-183.11"/>
</g>
<!-- 9&#45;&gt;0 -->
<g id="edge7" class="edge">
<title>9&#45;&gt;0</title>
<path fill="none" stroke="grey" stroke-width="2" d="M306.48,-143.89C295.2,-134.28 281.91,-121.51 272.5,-108 259.13,-88.8 249.07,-64.17 242.66,-45.68"/>
<polygon fill="grey" stroke="grey" stroke-width="2" points="245.96,-44.5 239.49,-36.12 239.32,-46.71 245.96,-44.5"/>
</g>
<!-- 10 -->
<g id="node11" class="node">
<title>10</title>
<path fill="none" stroke="#5682d8" stroke-width="2" d="M411.5,-108C411.5,-108 293.5,-108 293.5,-108 287.5,-108 281.5,-102 281.5,-96 281.5,-96 281.5,-84 281.5,-84 281.5,-78 287.5,-72 293.5,-72 293.5,-72 411.5,-72 411.5,-72 417.5,-72 423.5,-78 423.5,-84 423.5,-84 423.5,-96 423.5,-96 423.5,-102 417.5,-108 411.5,-108"/>
<text text-anchor="middle" x="352.5" y="-87.5" font-family="sans" font-size="10.00">interactive_heatmap_plot</text>
</g>
<!-- 9&#45;&gt;10 -->
<g id="edge21" class="edge">
<title>9&#45;&gt;10</title>
<path fill="none" stroke="grey" stroke-width="2" d="M334.43,-143.7C337.11,-135.9 340.33,-126.51 343.3,-117.83"/>
<polygon fill="grey" stroke="grey" stroke-width="2" points="346.7,-118.7 346.64,-108.1 340.08,-116.43 346.7,-118.7"/>
</g>
<!-- 10&#45;&gt;0 -->
<g id="edge8" class="edge">
<title>10&#45;&gt;0</title>
<path fill="none" stroke="grey" stroke-width="2" d="M323.63,-71.88C308.21,-62.72 289.02,-51.34 272.4,-41.48"/>
<polygon fill="grey" stroke="grey" stroke-width="2" points="273.86,-38.28 263.48,-36.19 270.29,-44.3 273.86,-38.28"/>
</g>
</g>
</svg>
