<?xml version="1.0" encoding="UTF-8" standalone="no"?>
<!DOCTYPE svg PUBLIC "-//W3C//DTD SVG 1.1//EN"
 "http://www.w3.org/Graphics/SVG/1.1/DTD/svg11.dtd">
<!-- Generated by graphviz version 2.40.1 (0)
 -->
<!-- Title: snakemake_dag Pages: 1 -->
<svg width="790pt" height="476pt"
 viewBox="0.00 0.00 790.00 476.00" xmlns="http://www.w3.org/2000/svg" xmlns:xlink="http://www.w3.org/1999/xlink">
<g id="graph0" class="graph" transform="scale(1 1) rotate(0) translate(4 472)">
<title>snakemake_dag</title>
<polygon fill="#ffffff" stroke="transparent" points="-4,4 -4,-472 786,-472 786,4 -4,4"/>
<!-- 0 -->
<g id="node1" class="node">
<title>0</title>
<path fill="none" stroke="#68d856" stroke-width="2" d="M471,-36C471,-36 399,-36 399,-36 393,-36 387,-30 387,-24 387,-24 387,-12 387,-12 387,-6 393,0 399,0 399,0 471,0 471,0 477,0 483,-6 483,-12 483,-12 483,-24 483,-24 483,-30 477,-36 471,-36"/>
<text text-anchor="middle" x="435" y="-15.5" font-family="sans" font-size="10.00" fill="#000000">make_summary</text>
</g>
<!-- 1 -->
<g id="node2" class="node">
<title>1</title>
<path fill="none" stroke="#d85656" stroke-width="2" d="M159,-180C159,-180 115,-180 115,-180 109,-180 103,-174 103,-168 103,-168 103,-156 103,-156 103,-150 109,-144 115,-144 115,-144 159,-144 159,-144 165,-144 171,-150 171,-156 171,-156 171,-168 171,-168 171,-174 165,-180 159,-180"/>
<text text-anchor="middle" x="137" y="-159.5" font-family="sans" font-size="10.00" fill="#000000">make_dag</text>
</g>
<!-- 1&#45;&gt;0 -->
<g id="edge1" class="edge">
<title>1&#45;&gt;0</title>
<path fill="none" stroke="#c0c0c0" stroke-width="2" d="M147.2109,-143.8087C159.7571,-123.1749 182.9918,-90.0584 212,-72 262.2508,-40.7176 329.3,-27.5571 376.7152,-22.0206"/>
<polygon fill="#c0c0c0" stroke="#c0c0c0" stroke-width="2" points="377.2584,-25.4822 386.821,-20.9208 376.501,-18.5233 377.2584,-25.4822"/>
</g>
<!-- 2 -->
<g id="node3" class="node">
<title>2</title>
<path fill="none" stroke="#56a9d8" stroke-width="2" d="M147.5,-108C147.5,-108 70.5,-108 70.5,-108 64.5,-108 58.5,-102 58.5,-96 58.5,-96 58.5,-84 58.5,-84 58.5,-78 64.5,-72 70.5,-72 70.5,-72 147.5,-72 147.5,-72 153.5,-72 159.5,-78 159.5,-84 159.5,-84 159.5,-96 159.5,-96 159.5,-102 153.5,-108 147.5,-108"/>
<text text-anchor="middle" x="109" y="-87.5" font-family="sans" font-size="10.00" fill="#000000">save_pinned_env</text>
</g>
<!-- 1&#45;&gt;2 -->
<g id="edge12" class="edge">
<title>1&#45;&gt;2</title>
<path fill="none" stroke="#c0c0c0" stroke-width="2" d="M129.9344,-143.8314C126.874,-135.9617 123.2221,-126.5712 119.8318,-117.8533"/>
<polygon fill="#c0c0c0" stroke="#c0c0c0" stroke-width="2" points="123.0473,-116.4647 116.1607,-108.4133 116.5232,-119.0019 123.0473,-116.4647"/>
</g>
<!-- 2&#45;&gt;0 -->
<g id="edge2" class="edge">
<title>2&#45;&gt;0</title>
<path fill="none" stroke="#c0c0c0" stroke-width="2" d="M159.6578,-75.6232C164.4944,-74.3557 169.3334,-73.1276 174,-72 243.2974,-55.2557 323.7196,-39.1068 376.7759,-28.9016"/>
<polygon fill="#c0c0c0" stroke="#c0c0c0" stroke-width="2" points="377.5198,-32.3228 386.6828,-27.004 376.2029,-25.4478 377.5198,-32.3228"/>
</g>
<!-- 3 -->
<g id="node4" class="node">
<title>3</title>
<path fill="none" stroke="#56d0d8" stroke-width="2" d="M544.5,-396C544.5,-396 455.5,-396 455.5,-396 449.5,-396 443.5,-390 443.5,-384 443.5,-384 443.5,-372 443.5,-372 443.5,-366 449.5,-360 455.5,-360 455.5,-360 544.5,-360 544.5,-360 550.5,-360 556.5,-366 556.5,-372 556.5,-372 556.5,-384 556.5,-384 556.5,-390 550.5,-396 544.5,-396"/>
<text text-anchor="middle" x="500" y="-375.5" font-family="sans" font-size="10.00" fill="#000000">process_ccs_PDCoV</text>
</g>
<!-- 3&#45;&gt;0 -->
<g id="edge3" class="edge">
<title>3&#45;&gt;0</title>
<path fill="none" stroke="#c0c0c0" stroke-width="2" d="M556.5275,-372.0188C633.5483,-360.3854 762,-327.0372 762,-234 762,-234 762,-234 762,-162 762,-106.6743 724.1694,-99.2149 676,-72 645.1901,-54.5929 553.9204,-37.1837 492.9646,-27.0116"/>
<polygon fill="#c0c0c0" stroke="#c0c0c0" stroke-width="2" points="493.5183,-23.5557 483.0819,-25.3813 492.3789,-30.4624 493.5183,-23.5557"/>
</g>
<!-- 9 -->
<g id="node10" class="node">
<title>9</title>
<path fill="none" stroke="#d8a456" stroke-width="2" d="M532.5,-324C532.5,-324 467.5,-324 467.5,-324 461.5,-324 455.5,-318 455.5,-312 455.5,-312 455.5,-300 455.5,-300 455.5,-294 461.5,-288 467.5,-288 467.5,-288 532.5,-288 532.5,-288 538.5,-288 544.5,-294 544.5,-300 544.5,-300 544.5,-312 544.5,-312 544.5,-318 538.5,-324 532.5,-324"/>
<text text-anchor="middle" x="500" y="-303.5" font-family="sans" font-size="10.00" fill="#000000">count_variants</text>
</g>
<!-- 3&#45;&gt;9 -->
<g id="edge21" class="edge">
<title>3&#45;&gt;9</title>
<path fill="none" stroke="#c0c0c0" stroke-width="2" d="M500,-359.8314C500,-352.131 500,-342.9743 500,-334.4166"/>
<polygon fill="#c0c0c0" stroke="#c0c0c0" stroke-width="2" points="503.5001,-334.4132 500,-324.4133 496.5001,-334.4133 503.5001,-334.4132"/>
</g>
<!-- 10 -->
<g id="node11" class="node">
<title>10</title>
<path fill="none" stroke="#8fd856" stroke-width="2" d="M623.5,-252C623.5,-252 540.5,-252 540.5,-252 534.5,-252 528.5,-246 528.5,-240 528.5,-240 528.5,-228 528.5,-228 528.5,-222 534.5,-216 540.5,-216 540.5,-216 623.5,-216 623.5,-216 629.5,-216 635.5,-222 635.5,-228 635.5,-228 635.5,-240 635.5,-240 635.5,-246 629.5,-252 623.5,-252"/>
<text text-anchor="middle" x="582" y="-231.5" font-family="sans" font-size="10.00" fill="#000000">fit_gAPN_titrations</text>
</g>
<!-- 3&#45;&gt;10 -->
<g id="edge22" class="edge">
<title>3&#45;&gt;10</title>
<path fill="none" stroke="#c0c0c0" stroke-width="2" d="M522.8328,-359.7592C533.5989,-350.1216 545.8409,-337.5038 554,-324 565.5134,-304.9446 572.6976,-280.7229 576.9022,-262.2085"/>
<polygon fill="#c0c0c0" stroke="#c0c0c0" stroke-width="2" points="580.3498,-262.8221 578.992,-252.3147 573.5009,-261.3755 580.3498,-262.8221"/>
</g>
<!-- 11 -->
<g id="node12" class="node">
<title>11</title>
<path fill="none" stroke="#56d892" stroke-width="2" d="M722,-252C722,-252 666,-252 666,-252 660,-252 654,-246 654,-240 654,-240 654,-228 654,-228 654,-222 660,-216 666,-216 666,-216 722,-216 722,-216 728,-216 734,-222 734,-228 734,-228 734,-240 734,-240 734,-246 728,-252 722,-252"/>
<text text-anchor="middle" x="694" y="-231.5" font-family="sans" font-size="10.00" fill="#000000">fit_hAPN_MFI</text>
</g>
<!-- 3&#45;&gt;11 -->
<g id="edge24" class="edge">
<title>3&#45;&gt;11</title>
<path fill="none" stroke="#c0c0c0" stroke-width="2" d="M525.45,-359.9007C540.0183,-349.4841 558.6046,-336.0997 575,-324 604.8299,-301.9857 638.5013,-276.4554 662.3947,-258.2217"/>
<polygon fill="#c0c0c0" stroke="#c0c0c0" stroke-width="2" points="664.5939,-260.9461 670.4159,-252.0943 660.3446,-255.3834 664.5939,-260.9461"/>
</g>
<!-- 12 -->
<g id="node13" class="node">
<title>12</title>
<path fill="none" stroke="#d87d56" stroke-width="2" d="M322,-252C322,-252 266,-252 266,-252 260,-252 254,-246 254,-240 254,-240 254,-228 254,-228 254,-222 260,-216 266,-216 266,-216 322,-216 322,-216 328,-216 334,-222 334,-228 334,-228 334,-240 334,-240 334,-246 328,-252 322,-252"/>
<text text-anchor="middle" x="294" y="-231.5" font-family="sans" font-size="10.00" fill="#000000">fit_pAPN_MFI</text>
</g>
<!-- 3&#45;&gt;12 -->
<g id="edge26" class="edge">
<title>3&#45;&gt;12</title>
<path fill="none" stroke="#c0c0c0" stroke-width="2" d="M473.91,-359.7623C436.9163,-333.9026 369.1702,-286.5461 328.1948,-257.9032"/>
<polygon fill="#c0c0c0" stroke="#c0c0c0" stroke-width="2" points="330.0795,-254.9503 319.8782,-252.0896 326.069,-260.6876 330.0795,-254.9503"/>
</g>
<!-- 13 -->
<g id="node14" class="node">
<title>13</title>
<path fill="none" stroke="#d8cb56" stroke-width="2" d="M459.5,-252C459.5,-252 364.5,-252 364.5,-252 358.5,-252 352.5,-246 352.5,-240 352.5,-240 352.5,-228 352.5,-228 352.5,-222 358.5,-216 364.5,-216 364.5,-216 459.5,-216 459.5,-216 465.5,-216 471.5,-222 471.5,-228 471.5,-228 471.5,-240 471.5,-240 471.5,-246 465.5,-252 459.5,-252"/>
<text text-anchor="middle" x="412" y="-231.5" font-family="sans" font-size="10.00" fill="#000000">calculate_expression</text>
</g>
<!-- 3&#45;&gt;13 -->
<g id="edge28" class="edge">
<title>3&#45;&gt;13</title>
<path fill="none" stroke="#c0c0c0" stroke-width="2" d="M478.5228,-359.9265C467.9357,-350.1458 455.6237,-337.3519 447,-324 434.5671,-304.7504 425.4329,-280.3991 419.6193,-261.8818"/>
<polygon fill="#c0c0c0" stroke="#c0c0c0" stroke-width="2" points="422.9594,-260.835 416.7312,-252.2641 416.2551,-262.8482 422.9594,-260.835"/>
</g>
<!-- 4 -->
<g id="node5" class="node">
<title>4</title>
<path fill="none" stroke="#b6d856" stroke-width="2" d="M576,-468C576,-468 424,-468 424,-468 418,-468 412,-462 412,-456 412,-456 412,-444 412,-444 412,-438 418,-432 424,-432 424,-432 576,-432 576,-432 582,-432 588,-438 588,-444 588,-444 588,-456 588,-456 588,-462 582,-468 576,-468"/>
<text text-anchor="middle" x="500" y="-453" font-family="sans" font-size="10.00" fill="#000000">get_ccs</text>
<text text-anchor="middle" x="500" y="-442" font-family="sans" font-size="10.00" fill="#000000">pacbioRun: lib55_PDCoV_230126</text>
</g>
<!-- 4&#45;&gt;3 -->
<g id="edge13" class="edge">
<title>4&#45;&gt;3</title>
<path fill="none" stroke="#c0c0c0" stroke-width="2" d="M500,-431.8314C500,-424.131 500,-414.9743 500,-406.4166"/>
<polygon fill="#c0c0c0" stroke="#c0c0c0" stroke-width="2" points="503.5001,-406.4132 500,-396.4133 496.5001,-406.4133 503.5001,-406.4132"/>
</g>
<!-- 8 -->
<g id="node9" class="node">
<title>8</title>
<path fill="none" stroke="#56d8b9" stroke-width="2" d="M350.5,-396C350.5,-396 249.5,-396 249.5,-396 243.5,-396 237.5,-390 237.5,-384 237.5,-384 237.5,-372 237.5,-372 237.5,-366 243.5,-360 249.5,-360 249.5,-360 350.5,-360 350.5,-360 356.5,-360 362.5,-366 362.5,-372 362.5,-372 362.5,-384 362.5,-384 362.5,-390 356.5,-396 350.5,-396"/>
<text text-anchor="middle" x="300" y="-375.5" font-family="sans" font-size="10.00" fill="#000000">process_ccs_panDCoV</text>
</g>
<!-- 4&#45;&gt;8 -->
<g id="edge17" class="edge">
<title>4&#45;&gt;8</title>
<path fill="none" stroke="#c0c0c0" stroke-width="2" d="M449.7897,-431.9243C422.4485,-422.0815 388.4406,-409.8386 359.7425,-399.5073"/>
<polygon fill="#c0c0c0" stroke="#c0c0c0" stroke-width="2" points="360.8254,-396.1773 350.2309,-396.0831 358.4543,-402.7635 360.8254,-396.1773"/>
</g>
<!-- 5 -->
<g id="node6" class="node">
<title>5</title>
<path fill="none" stroke="#b6d856" stroke-width="2" d="M770,-468C770,-468 618,-468 618,-468 612,-468 606,-462 606,-456 606,-456 606,-444 606,-444 606,-438 612,-432 618,-432 618,-432 770,-432 770,-432 776,-432 782,-438 782,-444 782,-444 782,-456 782,-456 782,-462 776,-468 770,-468"/>
<text text-anchor="middle" x="694" y="-453" font-family="sans" font-size="10.00" fill="#000000">get_ccs</text>
<text text-anchor="middle" x="694" y="-442" font-family="sans" font-size="10.00" fill="#000000">pacbioRun: lib56_PDCoV_230126</text>
</g>
<!-- 5&#45;&gt;3 -->
<g id="edge14" class="edge">
<title>5&#45;&gt;3</title>
<path fill="none" stroke="#c0c0c0" stroke-width="2" d="M645.0456,-431.8314C618.638,-422.0306 585.8744,-409.8709 558.1714,-399.5894"/>
<polygon fill="#c0c0c0" stroke="#c0c0c0" stroke-width="2" points="559.1953,-396.2362 548.6024,-396.038 556.7597,-402.7988 559.1953,-396.2362"/>
</g>
<!-- 5&#45;&gt;8 -->
<g id="edge18" class="edge">
<title>5&#45;&gt;8</title>
<path fill="none" stroke="#c0c0c0" stroke-width="2" d="M605.9742,-433.6509C602.9463,-433.0931 599.948,-432.5415 597,-432 520.4994,-417.9474 432.878,-402.0391 372.7421,-391.1499"/>
<polygon fill="#c0c0c0" stroke="#c0c0c0" stroke-width="2" points="373.0524,-387.6492 362.5888,-389.3117 371.8053,-394.5373 373.0524,-387.6492"/>
</g>
<!-- 6 -->
<g id="node7" class="node">
<title>6</title>
<path fill="none" stroke="#b6d856" stroke-width="2" d="M176,-468C176,-468 12,-468 12,-468 6,-468 0,-462 0,-456 0,-456 0,-444 0,-444 0,-438 6,-432 12,-432 12,-432 176,-432 176,-432 182,-432 188,-438 188,-444 188,-444 188,-456 188,-456 188,-462 182,-468 176,-468"/>
<text text-anchor="middle" x="94" y="-453" font-family="sans" font-size="10.00" fill="#000000">get_ccs</text>
<text text-anchor="middle" x="94" y="-442" font-family="sans" font-size="10.00" fill="#000000">pacbioRun: lib80_panDCoV_240206</text>
</g>
<!-- 6&#45;&gt;3 -->
<g id="edge15" class="edge">
<title>6&#45;&gt;3</title>
<path fill="none" stroke="#c0c0c0" stroke-width="2" d="M188.165,-433.3008C263.253,-419.9847 366.5469,-401.6666 433.2981,-389.8289"/>
<polygon fill="#c0c0c0" stroke="#c0c0c0" stroke-width="2" points="434.0452,-393.2511 443.2804,-388.0586 432.8228,-386.3587 434.0452,-393.2511"/>
</g>
<!-- 6&#45;&gt;8 -->
<g id="edge19" class="edge">
<title>6&#45;&gt;8</title>
<path fill="none" stroke="#c0c0c0" stroke-width="2" d="M145.7166,-431.9243C173.878,-422.0815 208.9062,-409.8386 238.4653,-399.5073"/>
<polygon fill="#c0c0c0" stroke="#c0c0c0" stroke-width="2" points="239.9769,-402.6866 248.2621,-396.0831 237.6673,-396.0786 239.9769,-402.6866"/>
</g>
<!-- 7 -->
<g id="node8" class="node">
<title>7</title>
<path fill="none" stroke="#b6d856" stroke-width="2" d="M382,-468C382,-468 218,-468 218,-468 212,-468 206,-462 206,-456 206,-456 206,-444 206,-444 206,-438 212,-432 218,-432 218,-432 382,-432 382,-432 388,-432 394,-438 394,-444 394,-444 394,-456 394,-456 394,-462 388,-468 382,-468"/>
<text text-anchor="middle" x="300" y="-453" font-family="sans" font-size="10.00" fill="#000000">get_ccs</text>
<text text-anchor="middle" x="300" y="-442" font-family="sans" font-size="10.00" fill="#000000">pacbioRun: lib81_panDCoV_240206</text>
</g>
<!-- 7&#45;&gt;3 -->
<g id="edge16" class="edge">
<title>7&#45;&gt;3</title>
<path fill="none" stroke="#c0c0c0" stroke-width="2" d="M350.2103,-431.9243C377.5515,-422.0815 411.5594,-409.8386 440.2575,-399.5073"/>
<polygon fill="#c0c0c0" stroke="#c0c0c0" stroke-width="2" points="441.5457,-402.7635 449.7691,-396.0831 439.1746,-396.1773 441.5457,-402.7635"/>
</g>
<!-- 7&#45;&gt;8 -->
<g id="edge20" class="edge">
<title>7&#45;&gt;8</title>
<path fill="none" stroke="#c0c0c0" stroke-width="2" d="M300,-431.8314C300,-424.131 300,-414.9743 300,-406.4166"/>
<polygon fill="#c0c0c0" stroke="#c0c0c0" stroke-width="2" points="303.5001,-406.4132 300,-396.4133 296.5001,-406.4133 303.5001,-406.4132"/>
</g>
<!-- 8&#45;&gt;0 -->
<g id="edge4" class="edge">
<title>8&#45;&gt;0</title>
<path fill="none" stroke="#c0c0c0" stroke-width="2" d="M283.577,-359.9758C261.776,-334.1064 226,-284.032 226,-234 226,-234 226,-234 226,-162 226,-88.2821 315.2601,-49.4159 377.1146,-31.3328"/>
<polygon fill="#c0c0c0" stroke="#c0c0c0" stroke-width="2" points="378.1128,-34.6879 386.7888,-28.6068 376.2143,-27.9503 378.1128,-34.6879"/>
</g>
<!-- 9&#45;&gt;0 -->
<g id="edge5" class="edge">
<title>9&#45;&gt;0</title>
<path fill="none" stroke="#c0c0c0" stroke-width="2" d="M496.3398,-287.685C492.6508,-269.4685 486.7025,-240.7427 481,-216 469.8881,-167.7867 465.1119,-156.2133 454,-108 449.2553,-87.4133 444.3405,-64.0692 440.6984,-46.3153"/>
<polygon fill="#c0c0c0" stroke="#c0c0c0" stroke-width="2" points="444.0869,-45.4146 438.6602,-36.315 437.2279,-46.8126 444.0869,-45.4146"/>
</g>
<!-- 9&#45;&gt;10 -->
<g id="edge23" class="edge">
<title>9&#45;&gt;10</title>
<path fill="none" stroke="#c0c0c0" stroke-width="2" d="M520.6921,-287.8314C530.6948,-279.0485 542.855,-268.3712 553.6999,-258.8489"/>
<polygon fill="#c0c0c0" stroke="#c0c0c0" stroke-width="2" points="556.1094,-261.3909 561.3146,-252.1628 551.4908,-256.1308 556.1094,-261.3909"/>
</g>
<!-- 9&#45;&gt;11 -->
<g id="edge25" class="edge">
<title>9&#45;&gt;11</title>
<path fill="none" stroke="#c0c0c0" stroke-width="2" d="M544.5075,-289.4817C574.2853,-278.4302 613.5079,-263.8734 644.3054,-252.4433"/>
<polygon fill="#c0c0c0" stroke="#c0c0c0" stroke-width="2" points="645.8286,-255.6114 653.986,-248.8506 643.393,-249.0488 645.8286,-255.6114"/>
</g>
<!-- 9&#45;&gt;12 -->
<g id="edge27" class="edge">
<title>9&#45;&gt;12</title>
<path fill="none" stroke="#c0c0c0" stroke-width="2" d="M455.2495,-290.8838C425.9421,-280.9214 386.5803,-267.4238 343.603,-252.1846"/>
<polygon fill="#c0c0c0" stroke="#c0c0c0" stroke-width="2" points="344.6815,-248.8535 334.0868,-248.8027 342.3374,-255.4494 344.6815,-248.8535"/>
</g>
<!-- 9&#45;&gt;13 -->
<g id="edge29" class="edge">
<title>9&#45;&gt;13</title>
<path fill="none" stroke="#c0c0c0" stroke-width="2" d="M477.7939,-287.8314C466.955,-278.9632 453.7556,-268.1637 442.0322,-258.5718"/>
<polygon fill="#c0c0c0" stroke="#c0c0c0" stroke-width="2" points="444.155,-255.7864 434.199,-252.1628 439.7223,-261.2041 444.155,-255.7864"/>
</g>
<!-- 10&#45;&gt;0 -->
<g id="edge6" class="edge">
<title>10&#45;&gt;0</title>
<path fill="none" stroke="#c0c0c0" stroke-width="2" d="M598.6234,-215.8941C606.7339,-206.008 615.8335,-193.1285 621,-180 638.6384,-135.1794 659.162,-110.3351 630,-72 613.4009,-50.1795 544.5461,-34.8924 493.3319,-26.2838"/>
<polygon fill="#c0c0c0" stroke="#c0c0c0" stroke-width="2" points="493.7787,-22.8104 483.345,-24.6512 492.6493,-29.7187 493.7787,-22.8104"/>
</g>
<!-- 14 -->
<g id="node15" class="node">
<title>14</title>
<path fill="none" stroke="#567bd8" stroke-width="2" d="M600,-180C600,-180 530,-180 530,-180 524,-180 518,-174 518,-168 518,-168 518,-156 518,-156 518,-150 524,-144 530,-144 530,-144 600,-144 600,-144 606,-144 612,-150 612,-156 612,-156 612,-168 612,-168 612,-174 606,-180 600,-180"/>
<text text-anchor="middle" x="565" y="-159.5" font-family="sans" font-size="10.00" fill="#000000">collapse_scores</text>
</g>
<!-- 10&#45;&gt;14 -->
<g id="edge30" class="edge">
<title>10&#45;&gt;14</title>
<path fill="none" stroke="#c0c0c0" stroke-width="2" d="M577.7102,-215.8314C575.892,-208.131 573.7301,-198.9743 571.7095,-190.4166"/>
<polygon fill="#c0c0c0" stroke="#c0c0c0" stroke-width="2" points="575.0519,-189.3414 569.3476,-180.4133 568.2392,-190.95 575.0519,-189.3414"/>
</g>
<!-- 11&#45;&gt;0 -->
<g id="edge7" class="edge">
<title>11&#45;&gt;0</title>
<path fill="none" stroke="#c0c0c0" stroke-width="2" d="M694.7446,-215.7801C695.0603,-182.3623 690.6872,-111.117 651,-72 628.9061,-50.2236 549.6041,-34.526 493.5174,-25.8453"/>
<polygon fill="#c0c0c0" stroke="#c0c0c0" stroke-width="2" points="493.7448,-22.3399 483.334,-24.3061 492.6986,-29.2613 493.7448,-22.3399"/>
</g>
<!-- 11&#45;&gt;14 -->
<g id="edge31" class="edge">
<title>11&#45;&gt;14</title>
<path fill="none" stroke="#c0c0c0" stroke-width="2" d="M661.4479,-215.8314C644.7952,-206.5368 624.3415,-195.1208 606.5615,-185.1971"/>
<polygon fill="#c0c0c0" stroke="#c0c0c0" stroke-width="2" points="607.9795,-181.9803 597.5417,-180.1628 604.5679,-188.0927 607.9795,-181.9803"/>
</g>
<!-- 12&#45;&gt;0 -->
<g id="edge8" class="edge">
<title>12&#45;&gt;0</title>
<path fill="none" stroke="#c0c0c0" stroke-width="2" d="M305.7791,-215.9555C330.6095,-177.9173 388.4288,-89.3431 417.5626,-44.7127"/>
<polygon fill="#c0c0c0" stroke="#c0c0c0" stroke-width="2" points="420.6199,-46.4321 423.1553,-36.1451 414.7582,-42.6057 420.6199,-46.4321"/>
</g>
<!-- 12&#45;&gt;14 -->
<g id="edge32" class="edge">
<title>12&#45;&gt;14</title>
<path fill="none" stroke="#c0c0c0" stroke-width="2" d="M334.2539,-218.8017C337.201,-217.8156 340.1388,-216.8705 343,-216 398.3896,-199.1492 462.7856,-183.9592 507.9117,-174.0142"/>
<polygon fill="#c0c0c0" stroke="#c0c0c0" stroke-width="2" points="508.7865,-177.4056 517.8075,-171.8493 507.2905,-170.5673 508.7865,-177.4056"/>
</g>
<!-- 13&#45;&gt;0 -->
<g id="edge9" class="edge">
<title>13&#45;&gt;0</title>
<path fill="none" stroke="#c0c0c0" stroke-width="2" d="M411.8413,-215.8986C411.8373,-185.8295 412.933,-123.7684 421,-72 422.3211,-63.5221 424.4045,-54.4448 426.5644,-46.1983"/>
<polygon fill="#c0c0c0" stroke="#c0c0c0" stroke-width="2" points="430.0082,-46.8752 429.2895,-36.3048 423.2596,-45.0163 430.0082,-46.8752"/>
</g>
<!-- 13&#45;&gt;14 -->
<g id="edge33" class="edge">
<title>13&#45;&gt;14</title>
<path fill="none" stroke="#c0c0c0" stroke-width="2" d="M450.6084,-215.8314C470.8893,-206.2874 495.9238,-194.5065 517.3971,-184.4013"/>
<polygon fill="#c0c0c0" stroke="#c0c0c0" stroke-width="2" points="519.1114,-187.4629 526.6693,-180.038 516.1308,-181.1291 519.1114,-187.4629"/>
</g>
<!-- 14&#45;&gt;0 -->
<g id="edge10" class="edge">
<title>14&#45;&gt;0</title>
<path fill="none" stroke="#c0c0c0" stroke-width="2" d="M586.9194,-143.8661C606.9991,-125.0312 631.1863,-95.136 614,-72 599.3933,-52.3366 539.7938,-37.0895 493.3297,-27.8858"/>
<polygon fill="#c0c0c0" stroke="#c0c0c0" stroke-width="2" points="493.8188,-24.4158 483.3369,-25.9582 492.4929,-31.289 493.8188,-24.4158"/>
</g>
<!-- 15 -->
<g id="node16" class="node">
<title>15</title>
<path fill="none" stroke="#56d86b" stroke-width="2" d="M593,-108C593,-108 475,-108 475,-108 469,-108 463,-102 463,-96 463,-96 463,-84 463,-84 463,-78 469,-72 475,-72 475,-72 593,-72 593,-72 599,-72 605,-78 605,-84 605,-84 605,-96 605,-96 605,-102 599,-108 593,-108"/>
<text text-anchor="middle" x="534" y="-87.5" font-family="sans" font-size="10.00" fill="#000000">interactive_heatmap_plot</text>
</g>
<!-- 14&#45;&gt;15 -->
<g id="edge34" class="edge">
<title>14&#45;&gt;15</title>
<path fill="none" stroke="#c0c0c0" stroke-width="2" d="M557.1774,-143.8314C553.7891,-135.9617 549.7459,-126.5712 545.9924,-117.8533"/>
<polygon fill="#c0c0c0" stroke="#c0c0c0" stroke-width="2" points="549.0973,-116.214 541.9279,-108.4133 542.6679,-118.9822 549.0973,-116.214"/>
</g>
<!-- 15&#45;&gt;0 -->
<g id="edge11" class="edge">
<title>15&#45;&gt;0</title>
<path fill="none" stroke="#c0c0c0" stroke-width="2" d="M509.0181,-71.8314C496.7072,-62.8779 481.6893,-51.9558 468.4063,-42.2955"/>
<polygon fill="#c0c0c0" stroke="#c0c0c0" stroke-width="2" points="470.1199,-39.214 459.9739,-36.1628 466.0027,-44.8752 470.1199,-39.214"/>
</g>
</g>
</svg>
