<?xml version="1.0" encoding="UTF-8" standalone="no"?>
<!DOCTYPE svg PUBLIC "-//W3C//DTD SVG 1.1//EN"
 "http://www.w3.org/Graphics/SVG/1.1/DTD/svg11.dtd">
<!-- Generated by graphviz version 2.50.0 (20211209.0339)
 -->
<!-- Title: snakemake_dag Pages: 1 -->
<svg width="414pt" height="476pt"
 viewBox="0.00 0.00 414.00 476.00" xmlns="http://www.w3.org/2000/svg" xmlns:xlink="http://www.w3.org/1999/xlink">
<g id="graph0" class="graph" transform="scale(1 1) rotate(0) translate(4 472)">
<title>snakemake_dag</title>
<polygon fill="white" stroke="transparent" points="-4,4 -4,-472 410,-472 410,4 -4,4"/>
<!-- 0 -->
<g id="node1" class="node">
<title>0</title>
<path fill="none" stroke="#56d8c1" stroke-width="2" d="M207,-36C207,-36 136,-36 136,-36 130,-36 124,-30 124,-24 124,-24 124,-12 124,-12 124,-6 130,0 136,0 136,0 207,0 207,0 213,0 219,-6 219,-12 219,-12 219,-24 219,-24 219,-30 213,-36 207,-36"/>
<text text-anchor="middle" x="171.5" y="-15.5" font-family="sans" font-size="10.00">make_summary</text>
</g>
<!-- 1 -->
<g id="node2" class="node">
<title>1</title>
<path fill="none" stroke="#bed856" stroke-width="2" d="M55,-108C55,-108 12,-108 12,-108 6,-108 0,-102 0,-96 0,-96 0,-84 0,-84 0,-78 6,-72 12,-72 12,-72 55,-72 55,-72 61,-72 67,-78 67,-84 67,-84 67,-96 67,-96 67,-102 61,-108 55,-108"/>
<text text-anchor="middle" x="33.5" y="-87.5" font-family="sans" font-size="10.00">make_dag</text>
</g>
<!-- 1&#45;&gt;0 -->
<g id="edge1" class="edge">
<title>1&#45;&gt;0</title>
<path fill="none" stroke="grey" stroke-width="2" d="M67.26,-71.88C85.72,-62.51 108.78,-50.81 128.52,-40.8"/>
<polygon fill="grey" stroke="grey" stroke-width="2" points="130.28,-43.83 137.61,-36.19 127.11,-37.59 130.28,-43.83"/>
</g>
<!-- 2 -->
<g id="node3" class="node">
<title>2</title>
<path fill="none" stroke="#d85656" stroke-width="2" d="M264,-396C264,-396 175,-396 175,-396 169,-396 163,-390 163,-384 163,-384 163,-372 163,-372 163,-366 169,-360 175,-360 175,-360 264,-360 264,-360 270,-360 276,-366 276,-372 276,-372 276,-384 276,-384 276,-390 270,-396 264,-396"/>
<text text-anchor="middle" x="219.5" y="-375.5" font-family="sans" font-size="10.00">process_ccs_PDCoV</text>
</g>
<!-- 2&#45;&gt;0 -->
<g id="edge2" class="edge">
<title>2&#45;&gt;0</title>
<path fill="none" stroke="grey" stroke-width="2" d="M177.63,-359.81C160.8,-351.16 142.38,-339.23 129.5,-324 102.16,-291.66 95.5,-277.34 95.5,-235 95.5,-235 95.5,-235 95.5,-161 95.5,-115.64 126.02,-70.75 148.38,-43.95"/>
<polygon fill="grey" stroke="grey" stroke-width="2" points="151.14,-46.09 155.01,-36.23 145.84,-41.53 151.14,-46.09"/>
</g>
<!-- 5 -->
<g id="node6" class="node">
<title>5</title>
<path fill="none" stroke="#56c1d8" stroke-width="2" d="M216,-324C216,-324 151,-324 151,-324 145,-324 139,-318 139,-312 139,-312 139,-300 139,-300 139,-294 145,-288 151,-288 151,-288 216,-288 216,-288 222,-288 228,-294 228,-300 228,-300 228,-312 228,-312 228,-318 222,-324 216,-324"/>
<text text-anchor="middle" x="183.5" y="-303.5" font-family="sans" font-size="10.00">count_variants</text>
</g>
<!-- 2&#45;&gt;5 -->
<g id="edge10" class="edge">
<title>2&#45;&gt;5</title>
<path fill="none" stroke="grey" stroke-width="2" d="M210.6,-359.7C206.5,-351.73 201.55,-342.1 197.01,-333.26"/>
<polygon fill="grey" stroke="grey" stroke-width="2" points="199.98,-331.4 192.3,-324.1 193.76,-334.6 199.98,-331.4"/>
</g>
<!-- 6 -->
<g id="node7" class="node">
<title>6</title>
<path fill="none" stroke="#568ad8" stroke-width="2" d="M225.5,-252C225.5,-252 173.5,-252 173.5,-252 167.5,-252 161.5,-246 161.5,-240 161.5,-240 161.5,-228 161.5,-228 161.5,-222 167.5,-216 173.5,-216 173.5,-216 225.5,-216 225.5,-216 231.5,-216 237.5,-222 237.5,-228 237.5,-228 237.5,-240 237.5,-240 237.5,-246 231.5,-252 225.5,-252"/>
<text text-anchor="middle" x="199.5" y="-231.5" font-family="sans" font-size="10.00">fit_titrations</text>
</g>
<!-- 2&#45;&gt;6 -->
<g id="edge11" class="edge">
<title>2&#45;&gt;6</title>
<path fill="none" stroke="grey" stroke-width="2" d="M227.65,-359.98C235.2,-341.85 244.19,-312.46 236.5,-288 233.4,-278.15 227.75,-268.53 221.78,-260.25"/>
<polygon fill="grey" stroke="grey" stroke-width="2" points="224.41,-257.94 215.54,-252.15 218.87,-262.21 224.41,-257.94"/>
</g>
<!-- 7 -->
<g id="node8" class="node">
<title>7</title>
<path fill="none" stroke="#d88d56" stroke-width="2" d="M363,-252C363,-252 268,-252 268,-252 262,-252 256,-246 256,-240 256,-240 256,-228 256,-228 256,-222 262,-216 268,-216 268,-216 363,-216 363,-216 369,-216 375,-222 375,-228 375,-228 375,-240 375,-240 375,-246 369,-252 363,-252"/>
<text text-anchor="middle" x="315.5" y="-231.5" font-family="sans" font-size="10.00">calculate_expression</text>
</g>
<!-- 2&#45;&gt;7 -->
<g id="edge13" class="edge">
<title>2&#45;&gt;7</title>
<path fill="none" stroke="grey" stroke-width="2" d="M231.08,-359.87C247.8,-335.14 278.83,-289.24 298.25,-260.51"/>
<polygon fill="grey" stroke="grey" stroke-width="2" points="301.18,-262.43 303.88,-252.19 295.38,-258.51 301.18,-262.43"/>
</g>
<!-- 3 -->
<g id="node4" class="node">
<title>3</title>
<path fill="none" stroke="#56d88a" stroke-width="2" d="M199,-468C199,-468 46,-468 46,-468 40,-468 34,-462 34,-456 34,-456 34,-444 34,-444 34,-438 40,-432 46,-432 46,-432 199,-432 199,-432 205,-432 211,-438 211,-444 211,-444 211,-456 211,-456 211,-462 205,-468 199,-468"/>
<text text-anchor="middle" x="122.5" y="-453" font-family="sans" font-size="10.00">get_ccs</text>
<text text-anchor="middle" x="122.5" y="-442" font-family="sans" font-size="10.00">pacbioRun: lib55_PDCoV_221209</text>
</g>
<!-- 3&#45;&gt;2 -->
<g id="edge8" class="edge">
<title>3&#45;&gt;2</title>
<path fill="none" stroke="grey" stroke-width="2" d="M146.48,-431.7C158.81,-422.8 174.02,-411.82 187.35,-402.2"/>
<polygon fill="grey" stroke="grey" stroke-width="2" points="189.74,-404.79 195.8,-396.1 185.64,-399.12 189.74,-404.79"/>
</g>
<!-- 4 -->
<g id="node5" class="node">
<title>4</title>
<path fill="none" stroke="#56d88a" stroke-width="2" d="M394,-468C394,-468 241,-468 241,-468 235,-468 229,-462 229,-456 229,-456 229,-444 229,-444 229,-438 235,-432 241,-432 241,-432 394,-432 394,-432 400,-432 406,-438 406,-444 406,-444 406,-456 406,-456 406,-462 400,-468 394,-468"/>
<text text-anchor="middle" x="317.5" y="-453" font-family="sans" font-size="10.00">get_ccs</text>
<text text-anchor="middle" x="317.5" y="-442" font-family="sans" font-size="10.00">pacbioRun: lib56_PDCoV_221209</text>
</g>
<!-- 4&#45;&gt;2 -->
<g id="edge9" class="edge">
<title>4&#45;&gt;2</title>
<path fill="none" stroke="grey" stroke-width="2" d="M293.53,-431.88C280.95,-422.89 265.37,-411.76 251.75,-402.03"/>
<polygon fill="grey" stroke="grey" stroke-width="2" points="253.74,-399.15 243.57,-396.19 249.67,-404.85 253.74,-399.15"/>
</g>
<!-- 5&#45;&gt;0 -->
<g id="edge3" class="edge">
<title>5&#45;&gt;0</title>
<path fill="none" stroke="grey" stroke-width="2" d="M170.35,-287.91C163.58,-278.01 156.01,-264.96 152.5,-252 132.8,-179.29 151.65,-89.52 163.51,-45.66"/>
<polygon fill="grey" stroke="grey" stroke-width="2" points="166.88,-46.6 166.21,-36.03 160.14,-44.72 166.88,-46.6"/>
</g>
<!-- 5&#45;&gt;6 -->
<g id="edge12" class="edge">
<title>5&#45;&gt;6</title>
<path fill="none" stroke="grey" stroke-width="2" d="M187.46,-287.7C189.22,-279.98 191.34,-270.71 193.3,-262.11"/>
<polygon fill="grey" stroke="grey" stroke-width="2" points="196.77,-262.63 195.59,-252.1 189.95,-261.07 196.77,-262.63"/>
</g>
<!-- 5&#45;&gt;7 -->
<g id="edge14" class="edge">
<title>5&#45;&gt;7</title>
<path fill="none" stroke="grey" stroke-width="2" d="M215.79,-287.88C233.37,-278.55 255.31,-266.92 274.13,-256.94"/>
<polygon fill="grey" stroke="grey" stroke-width="2" points="275.89,-259.97 283.09,-252.19 272.61,-253.78 275.89,-259.97"/>
</g>
<!-- 6&#45;&gt;0 -->
<g id="edge4" class="edge">
<title>6&#45;&gt;0</title>
<path fill="none" stroke="grey" stroke-width="2" d="M197.26,-215.85C192.41,-178.83 180.94,-91.18 175.08,-46.39"/>
<polygon fill="grey" stroke="grey" stroke-width="2" points="178.52,-45.69 173.75,-36.23 171.58,-46.6 178.52,-45.69"/>
</g>
<!-- 8 -->
<g id="node9" class="node">
<title>8</title>
<path fill="none" stroke="#d8bc56" stroke-width="2" d="M312.5,-180C312.5,-180 242.5,-180 242.5,-180 236.5,-180 230.5,-174 230.5,-168 230.5,-168 230.5,-156 230.5,-156 230.5,-150 236.5,-144 242.5,-144 242.5,-144 312.5,-144 312.5,-144 318.5,-144 324.5,-150 324.5,-156 324.5,-156 324.5,-168 324.5,-168 324.5,-174 318.5,-180 312.5,-180"/>
<text text-anchor="middle" x="277.5" y="-159.5" font-family="sans" font-size="10.00">collapse_scores</text>
</g>
<!-- 6&#45;&gt;8 -->
<g id="edge15" class="edge">
<title>6&#45;&gt;8</title>
<path fill="none" stroke="grey" stroke-width="2" d="M218.78,-215.7C228.42,-207.05 240.23,-196.45 250.73,-187.03"/>
<polygon fill="grey" stroke="grey" stroke-width="2" points="253.34,-189.39 258.44,-180.1 248.66,-184.18 253.34,-189.39"/>
</g>
<!-- 7&#45;&gt;0 -->
<g id="edge5" class="edge">
<title>7&#45;&gt;0</title>
<path fill="none" stroke="grey" stroke-width="2" d="M334.48,-215.81C366.55,-184.68 424.61,-117.98 388.5,-72 369.01,-47.18 286.62,-32.5 229.17,-25.1"/>
<polygon fill="grey" stroke="grey" stroke-width="2" points="229.46,-21.61 219.11,-23.84 228.6,-28.55 229.46,-21.61"/>
</g>
<!-- 7&#45;&gt;8 -->
<g id="edge16" class="edge">
<title>7&#45;&gt;8</title>
<path fill="none" stroke="grey" stroke-width="2" d="M306.11,-215.7C301.74,-207.64 296.44,-197.89 291.6,-188.98"/>
<polygon fill="grey" stroke="grey" stroke-width="2" points="294.63,-187.22 286.79,-180.1 288.48,-190.56 294.63,-187.22"/>
</g>
<!-- 8&#45;&gt;0 -->
<g id="edge6" class="edge">
<title>8&#45;&gt;0</title>
<path fill="none" stroke="grey" stroke-width="2" d="M259.89,-143.54C250.18,-133.53 238.15,-120.49 228.5,-108 212.93,-87.85 197.48,-63.38 186.61,-45.21"/>
<polygon fill="grey" stroke="grey" stroke-width="2" points="189.46,-43.16 181.36,-36.33 183.44,-46.72 189.46,-43.16"/>
</g>
<!-- 9 -->
<g id="node10" class="node">
<title>9</title>
<path fill="none" stroke="#59d856" stroke-width="2" d="M367.5,-108C367.5,-108 249.5,-108 249.5,-108 243.5,-108 237.5,-102 237.5,-96 237.5,-96 237.5,-84 237.5,-84 237.5,-78 243.5,-72 249.5,-72 249.5,-72 367.5,-72 367.5,-72 373.5,-72 379.5,-78 379.5,-84 379.5,-84 379.5,-96 379.5,-96 379.5,-102 373.5,-108 367.5,-108"/>
<text text-anchor="middle" x="308.5" y="-87.5" font-family="sans" font-size="10.00">interactive_heatmap_plot</text>
</g>
<!-- 8&#45;&gt;9 -->
<g id="edge17" class="edge">
<title>8&#45;&gt;9</title>
<path fill="none" stroke="grey" stroke-width="2" d="M285.16,-143.7C288.69,-135.73 292.96,-126.1 296.87,-117.26"/>
<polygon fill="grey" stroke="grey" stroke-width="2" points="300.08,-118.67 300.93,-108.1 293.68,-115.83 300.08,-118.67"/>
</g>
<!-- 9&#45;&gt;0 -->
<g id="edge7" class="edge">
<title>9&#45;&gt;0</title>
<path fill="none" stroke="grey" stroke-width="2" d="M274.99,-71.88C256.66,-62.51 233.76,-50.81 214.17,-40.8"/>
<polygon fill="grey" stroke="grey" stroke-width="2" points="215.64,-37.62 205.14,-36.19 212.46,-43.86 215.64,-37.62"/>
</g>
</g>
</svg>
