<?xml version="1.0" encoding="UTF-8" standalone="no"?>
<!DOCTYPE svg PUBLIC "-//W3C//DTD SVG 1.1//EN"
 "http://www.w3.org/Graphics/SVG/1.1/DTD/svg11.dtd">
<!-- Generated by graphviz version 2.40.1 (0)
 -->
<!-- Title: snakemake_dag Pages: 1 -->
<svg width="546pt" height="476pt"
 viewBox="0.00 0.00 545.93 476.00" xmlns="http://www.w3.org/2000/svg" xmlns:xlink="http://www.w3.org/1999/xlink">
<g id="graph0" class="graph" transform="scale(1 1) rotate(0) translate(4 472)">
<title>snakemake_dag</title>
<polygon fill="#ffffff" stroke="transparent" points="-4,4 -4,-472 541.9327,-472 541.9327,4 -4,4"/>
<!-- 0 -->
<g id="node1" class="node">
<title>0</title>
<path fill="none" stroke="#56d89a" stroke-width="2" d="M323.5,-36C323.5,-36 251.5,-36 251.5,-36 245.5,-36 239.5,-30 239.5,-24 239.5,-24 239.5,-12 239.5,-12 239.5,-6 245.5,0 251.5,0 251.5,0 323.5,0 323.5,0 329.5,0 335.5,-6 335.5,-12 335.5,-12 335.5,-24 335.5,-24 335.5,-30 329.5,-36 323.5,-36"/>
<text text-anchor="middle" x="287.5" y="-15.5" font-family="sans" font-size="10.00" fill="#000000">make_summary</text>
</g>
<!-- 1 -->
<g id="node2" class="node">
<title>1</title>
<path fill="none" stroke="#70d856" stroke-width="2" d="M100.5,-180C100.5,-180 56.5,-180 56.5,-180 50.5,-180 44.5,-174 44.5,-168 44.5,-168 44.5,-156 44.5,-156 44.5,-150 50.5,-144 56.5,-144 56.5,-144 100.5,-144 100.5,-144 106.5,-144 112.5,-150 112.5,-156 112.5,-156 112.5,-168 112.5,-168 112.5,-174 106.5,-180 100.5,-180"/>
<text text-anchor="middle" x="78.5" y="-159.5" font-family="sans" font-size="10.00" fill="#000000">make_dag</text>
</g>
<!-- 1&#45;&gt;0 -->
<g id="edge1" class="edge">
<title>1&#45;&gt;0</title>
<path fill="none" stroke="#c0c0c0" stroke-width="2" d="M89.6725,-143.8215C102.7763,-123.8202 126.2099,-91.8795 153.5,-72 176.2298,-55.4425 204.7523,-43.0303 229.6339,-34.3085"/>
<polygon fill="#c0c0c0" stroke="#c0c0c0" stroke-width="2" points="230.9769,-37.5491 239.328,-31.0292 228.7337,-30.9182 230.9769,-37.5491"/>
</g>
<!-- 2 -->
<g id="node3" class="node">
<title>2</title>
<path fill="none" stroke="#56d8c9" stroke-width="2" d="M89,-108C89,-108 12,-108 12,-108 6,-108 0,-102 0,-96 0,-96 0,-84 0,-84 0,-78 6,-72 12,-72 12,-72 89,-72 89,-72 95,-72 101,-78 101,-84 101,-84 101,-96 101,-96 101,-102 95,-108 89,-108"/>
<text text-anchor="middle" x="50.5" y="-87.5" font-family="sans" font-size="10.00" fill="#000000">save_pinned_env</text>
</g>
<!-- 1&#45;&gt;2 -->
<g id="edge10" class="edge">
<title>1&#45;&gt;2</title>
<path fill="none" stroke="#c0c0c0" stroke-width="2" d="M71.4344,-143.8314C68.374,-135.9617 64.7221,-126.5712 61.3318,-117.8533"/>
<polygon fill="#c0c0c0" stroke="#c0c0c0" stroke-width="2" points="64.5473,-116.4647 57.6607,-108.4133 58.0232,-119.0019 64.5473,-116.4647"/>
</g>
<!-- 2&#45;&gt;0 -->
<g id="edge2" class="edge">
<title>2&#45;&gt;0</title>
<path fill="none" stroke="#c0c0c0" stroke-width="2" d="M101.0518,-74.6425C138.7746,-63.1824 190.3728,-47.507 229.7265,-35.5514"/>
<polygon fill="#c0c0c0" stroke="#c0c0c0" stroke-width="2" points="230.9012,-38.8526 239.452,-32.5969 228.8664,-32.1549 230.9012,-38.8526"/>
</g>
<!-- 3 -->
<g id="node4" class="node">
<title>3</title>
<path fill="none" stroke="#56b1d8" stroke-width="2" d="M373,-396C373,-396 284,-396 284,-396 278,-396 272,-390 272,-384 272,-384 272,-372 272,-372 272,-366 278,-360 284,-360 284,-360 373,-360 373,-360 379,-360 385,-366 385,-372 385,-372 385,-384 385,-384 385,-390 379,-396 373,-396"/>
<text text-anchor="middle" x="328.5" y="-375.5" font-family="sans" font-size="10.00" fill="#000000">process_ccs_PDCoV</text>
</g>
<!-- 3&#45;&gt;0 -->
<g id="edge3" class="edge">
<title>3&#45;&gt;0</title>
<path fill="none" stroke="#c0c0c0" stroke-width="2" d="M281.9321,-359.8047C234.3827,-337.8103 167.5,-295.8757 167.5,-234 167.5,-234 167.5,-234 167.5,-162 167.5,-110.2495 213.8045,-67.2268 248.8862,-42.0578"/>
<polygon fill="#c0c0c0" stroke="#c0c0c0" stroke-width="2" points="251.3159,-44.6314 257.5285,-36.0492 247.3199,-38.884 251.3159,-44.6314"/>
</g>
<!-- 6 -->
<g id="node7" class="node">
<title>6</title>
<path fill="none" stroke="#ced856" stroke-width="2" d="M361,-324C361,-324 296,-324 296,-324 290,-324 284,-318 284,-312 284,-312 284,-300 284,-300 284,-294 290,-288 296,-288 296,-288 361,-288 361,-288 367,-288 373,-294 373,-300 373,-300 373,-312 373,-312 373,-318 367,-324 361,-324"/>
<text text-anchor="middle" x="328.5" y="-303.5" font-family="sans" font-size="10.00" fill="#000000">count_variants</text>
</g>
<!-- 3&#45;&gt;6 -->
<g id="edge13" class="edge">
<title>3&#45;&gt;6</title>
<path fill="none" stroke="#c0c0c0" stroke-width="2" d="M328.5,-359.8314C328.5,-352.131 328.5,-342.9743 328.5,-334.4166"/>
<polygon fill="#c0c0c0" stroke="#c0c0c0" stroke-width="2" points="332.0001,-334.4132 328.5,-324.4133 325.0001,-334.4133 332.0001,-334.4132"/>
</g>
<!-- 7 -->
<g id="node8" class="node">
<title>7</title>
<path fill="none" stroke="#5682d8" stroke-width="2" d="M291,-252C291,-252 208,-252 208,-252 202,-252 196,-246 196,-240 196,-240 196,-228 196,-228 196,-222 202,-216 208,-216 208,-216 291,-216 291,-216 297,-216 303,-222 303,-228 303,-228 303,-240 303,-240 303,-246 297,-252 291,-252"/>
<text text-anchor="middle" x="249.5" y="-231.5" font-family="sans" font-size="10.00" fill="#000000">fit_gAPN_titrations</text>
</g>
<!-- 3&#45;&gt;7 -->
<g id="edge14" class="edge">
<title>3&#45;&gt;7</title>
<path fill="none" stroke="#c0c0c0" stroke-width="2" d="M305.4884,-359.8653C294.6784,-350.2538 282.4511,-337.6273 274.5,-324 263.381,-304.9431 257.0193,-280.7215 253.4989,-262.2076"/>
<polygon fill="#c0c0c0" stroke="#c0c0c0" stroke-width="2" points="256.9403,-261.568 251.7816,-252.314 250.0435,-262.7652 256.9403,-261.568"/>
</g>
<!-- 8 -->
<g id="node9" class="node">
<title>8</title>
<path fill="none" stroke="#9fd856" stroke-width="2" d="M427.5,-252C427.5,-252 371.5,-252 371.5,-252 365.5,-252 359.5,-246 359.5,-240 359.5,-240 359.5,-228 359.5,-228 359.5,-222 365.5,-216 371.5,-216 371.5,-216 427.5,-216 427.5,-216 433.5,-216 439.5,-222 439.5,-228 439.5,-228 439.5,-240 439.5,-240 439.5,-246 433.5,-252 427.5,-252"/>
<text text-anchor="middle" x="399.5" y="-231.5" font-family="sans" font-size="10.00" fill="#000000">fit_hAPN_MFI</text>
</g>
<!-- 3&#45;&gt;8 -->
<g id="edge16" class="edge">
<title>3&#45;&gt;8</title>
<path fill="none" stroke="#c0c0c0" stroke-width="2" d="M351.7787,-359.786C362.4229,-350.2438 374.2499,-337.7005 381.5,-324 391.5931,-304.9272 396.0448,-280.8482 397.9993,-262.3967"/>
<polygon fill="#c0c0c0" stroke="#c0c0c0" stroke-width="2" points="401.5009,-262.5302 398.8853,-252.2634 394.5275,-261.9205 401.5009,-262.5302"/>
</g>
<!-- 9 -->
<g id="node10" class="node">
<title>9</title>
<path fill="none" stroke="#d8b456" stroke-width="2" d="M525.5,-252C525.5,-252 469.5,-252 469.5,-252 463.5,-252 457.5,-246 457.5,-240 457.5,-240 457.5,-228 457.5,-228 457.5,-222 463.5,-216 469.5,-216 469.5,-216 525.5,-216 525.5,-216 531.5,-216 537.5,-222 537.5,-228 537.5,-228 537.5,-240 537.5,-240 537.5,-246 531.5,-252 525.5,-252"/>
<text text-anchor="middle" x="497.5" y="-231.5" font-family="sans" font-size="10.00" fill="#000000">fit_pAPN_MFI</text>
</g>
<!-- 3&#45;&gt;9 -->
<g id="edge18" class="edge">
<title>3&#45;&gt;9</title>
<path fill="none" stroke="#c0c0c0" stroke-width="2" d="M355.1464,-359.8005C369.51,-349.6837 387.3454,-336.6199 402.5,-324 427.0946,-303.5191 453.3888,-278.3251 472.0643,-259.8074"/>
<polygon fill="#c0c0c0" stroke="#c0c0c0" stroke-width="2" points="474.9682,-261.8542 479.5745,-252.3131 470.0236,-256.8992 474.9682,-261.8542"/>
</g>
<!-- 4 -->
<g id="node5" class="node">
<title>4</title>
<path fill="none" stroke="#56d86b" stroke-width="2" d="M307.5,-468C307.5,-468 155.5,-468 155.5,-468 149.5,-468 143.5,-462 143.5,-456 143.5,-456 143.5,-444 143.5,-444 143.5,-438 149.5,-432 155.5,-432 155.5,-432 307.5,-432 307.5,-432 313.5,-432 319.5,-438 319.5,-444 319.5,-444 319.5,-456 319.5,-456 319.5,-462 313.5,-468 307.5,-468"/>
<text text-anchor="middle" x="231.5" y="-453" font-family="sans" font-size="10.00" fill="#000000">get_ccs</text>
<text text-anchor="middle" x="231.5" y="-442" font-family="sans" font-size="10.00" fill="#000000">pacbioRun: lib55_PDCoV_230126</text>
</g>
<!-- 4&#45;&gt;3 -->
<g id="edge11" class="edge">
<title>4&#45;&gt;3</title>
<path fill="none" stroke="#c0c0c0" stroke-width="2" d="M255.9772,-431.8314C268.0395,-422.8779 282.754,-411.9558 295.7686,-402.2955"/>
<polygon fill="#c0c0c0" stroke="#c0c0c0" stroke-width="2" points="298.087,-404.9335 304.0306,-396.1628 293.9148,-399.3127 298.087,-404.9335"/>
</g>
<!-- 5 -->
<g id="node6" class="node">
<title>5</title>
<path fill="none" stroke="#56d86b" stroke-width="2" d="M501.5,-468C501.5,-468 349.5,-468 349.5,-468 343.5,-468 337.5,-462 337.5,-456 337.5,-456 337.5,-444 337.5,-444 337.5,-438 343.5,-432 349.5,-432 349.5,-432 501.5,-432 501.5,-432 507.5,-432 513.5,-438 513.5,-444 513.5,-444 513.5,-456 513.5,-456 513.5,-462 507.5,-468 501.5,-468"/>
<text text-anchor="middle" x="425.5" y="-453" font-family="sans" font-size="10.00" fill="#000000">get_ccs</text>
<text text-anchor="middle" x="425.5" y="-442" font-family="sans" font-size="10.00" fill="#000000">pacbioRun: lib56_PDCoV_230126</text>
</g>
<!-- 5&#45;&gt;3 -->
<g id="edge12" class="edge">
<title>5&#45;&gt;3</title>
<path fill="none" stroke="#c0c0c0" stroke-width="2" d="M401.0228,-431.8314C388.9605,-422.8779 374.246,-411.9558 361.2314,-402.2955"/>
<polygon fill="#c0c0c0" stroke="#c0c0c0" stroke-width="2" points="363.0852,-399.3127 352.9694,-396.1628 358.913,-404.9335 363.0852,-399.3127"/>
</g>
<!-- 6&#45;&gt;0 -->
<g id="edge4" class="edge">
<title>6&#45;&gt;0</title>
<path fill="none" stroke="#c0c0c0" stroke-width="2" d="M325.9353,-287.9843C319.0037,-239.2939 299.8564,-104.7961 291.4943,-46.0573"/>
<polygon fill="#c0c0c0" stroke="#c0c0c0" stroke-width="2" points="294.9383,-45.4157 290.0638,-36.0089 288.0082,-46.4024 294.9383,-45.4157"/>
</g>
<!-- 6&#45;&gt;7 -->
<g id="edge15" class="edge">
<title>6&#45;&gt;7</title>
<path fill="none" stroke="#c0c0c0" stroke-width="2" d="M308.565,-287.8314C299.0217,-279.1337 287.4401,-268.5783 277.0694,-259.1265"/>
<polygon fill="#c0c0c0" stroke="#c0c0c0" stroke-width="2" points="279.1772,-256.3121 269.4287,-252.1628 274.462,-261.4857 279.1772,-256.3121"/>
</g>
<!-- 6&#45;&gt;8 -->
<g id="edge17" class="edge">
<title>6&#45;&gt;8</title>
<path fill="none" stroke="#c0c0c0" stroke-width="2" d="M346.4163,-287.8314C354.8442,-279.2848 365.041,-268.9443 374.236,-259.6198"/>
<polygon fill="#c0c0c0" stroke="#c0c0c0" stroke-width="2" points="376.8131,-261.9912 381.3425,-252.4133 371.8289,-257.0761 376.8131,-261.9912"/>
</g>
<!-- 6&#45;&gt;9 -->
<g id="edge19" class="edge">
<title>6&#45;&gt;9</title>
<path fill="none" stroke="#c0c0c0" stroke-width="2" d="M371.1458,-287.8314C394.5396,-277.8648 423.6593,-265.4588 448.046,-255.0692"/>
<polygon fill="#c0c0c0" stroke="#c0c0c0" stroke-width="2" points="449.6548,-258.1882 457.4828,-251.0487 446.9111,-251.7483 449.6548,-258.1882"/>
</g>
<!-- 7&#45;&gt;0 -->
<g id="edge5" class="edge">
<title>7&#45;&gt;0</title>
<path fill="none" stroke="#c0c0c0" stroke-width="2" d="M251.541,-215.9113C255.0743,-185.8607 262.9742,-123.8254 273.5,-72 275.2078,-63.5914 277.4103,-54.5355 279.5605,-46.2873"/>
<polygon fill="#c0c0c0" stroke="#c0c0c0" stroke-width="2" points="283.0073,-46.9463 282.215,-36.3811 276.2458,-45.1344 283.0073,-46.9463"/>
</g>
<!-- 10 -->
<g id="node11" class="node">
<title>10</title>
<path fill="none" stroke="#d88556" stroke-width="2" d="M459.5,-180C459.5,-180 389.5,-180 389.5,-180 383.5,-180 377.5,-174 377.5,-168 377.5,-168 377.5,-156 377.5,-156 377.5,-150 383.5,-144 389.5,-144 389.5,-144 459.5,-144 459.5,-144 465.5,-144 471.5,-150 471.5,-156 471.5,-156 471.5,-168 471.5,-168 471.5,-174 465.5,-180 459.5,-180"/>
<text text-anchor="middle" x="424.5" y="-159.5" font-family="sans" font-size="10.00" fill="#000000">collapse_scores</text>
</g>
<!-- 7&#45;&gt;10 -->
<g id="edge20" class="edge">
<title>7&#45;&gt;10</title>
<path fill="none" stroke="#c0c0c0" stroke-width="2" d="M293.6599,-215.8314C317.2732,-206.1162 346.5202,-194.0831 371.37,-183.8592"/>
<polygon fill="#c0c0c0" stroke="#c0c0c0" stroke-width="2" points="372.7415,-187.0797 380.6577,-180.038 370.0781,-180.6061 372.7415,-187.0797"/>
</g>
<!-- 8&#45;&gt;0 -->
<g id="edge6" class="edge">
<title>8&#45;&gt;0</title>
<path fill="none" stroke="#c0c0c0" stroke-width="2" d="M388.618,-215.6526C382.5493,-205.2715 374.9389,-192.0025 368.5,-180 343.4431,-133.2927 316.2657,-77.8584 300.6238,-45.4398"/>
<polygon fill="#c0c0c0" stroke="#c0c0c0" stroke-width="2" points="303.6449,-43.6462 296.1549,-36.1529 297.3372,-46.6815 303.6449,-43.6462"/>
</g>
<!-- 8&#45;&gt;10 -->
<g id="edge21" class="edge">
<title>8&#45;&gt;10</title>
<path fill="none" stroke="#c0c0c0" stroke-width="2" d="M405.8086,-215.8314C408.5117,-208.0463 411.7316,-198.7729 414.731,-190.1347"/>
<polygon fill="#c0c0c0" stroke="#c0c0c0" stroke-width="2" points="418.1327,-191.0081 418.1065,-180.4133 411.52,-188.7119 418.1327,-191.0081"/>
</g>
<!-- 9&#45;&gt;0 -->
<g id="edge7" class="edge">
<title>9&#45;&gt;0</title>
<path fill="none" stroke="#c0c0c0" stroke-width="2" d="M508.2044,-215.9403C525.937,-183.4086 556.2698,-114.4097 522.5,-72 500.7937,-44.7402 407.9342,-30.0981 345.6461,-23.1912"/>
<polygon fill="#c0c0c0" stroke="#c0c0c0" stroke-width="2" points="345.8612,-19.6943 335.5452,-22.1088 345.1153,-26.6545 345.8612,-19.6943"/>
</g>
<!-- 9&#45;&gt;10 -->
<g id="edge22" class="edge">
<title>9&#45;&gt;10</title>
<path fill="none" stroke="#c0c0c0" stroke-width="2" d="M479.079,-215.8314C470.3471,-207.219 459.7683,-196.7851 450.2577,-187.4048"/>
<polygon fill="#c0c0c0" stroke="#c0c0c0" stroke-width="2" points="452.4925,-184.6931 442.9151,-180.1628 447.577,-189.6769 452.4925,-184.6931"/>
</g>
<!-- 10&#45;&gt;0 -->
<g id="edge8" class="edge">
<title>10&#45;&gt;0</title>
<path fill="none" stroke="#c0c0c0" stroke-width="2" d="M466.968,-143.7705C481.5844,-135.1861 496.3211,-123.3886 504.5,-108 512.0092,-93.8716 514.3534,-84.6059 504.5,-72 485.1033,-47.1849 403.1198,-32.1332 345.6792,-24.4372"/>
<polygon fill="#c0c0c0" stroke="#c0c0c0" stroke-width="2" points="345.9846,-20.9476 335.617,-23.13 345.0827,-27.8892 345.9846,-20.9476"/>
</g>
<!-- 11 -->
<g id="node12" class="node">
<title>11</title>
<path fill="none" stroke="#d85656" stroke-width="2" d="M483.5,-108C483.5,-108 365.5,-108 365.5,-108 359.5,-108 353.5,-102 353.5,-96 353.5,-96 353.5,-84 353.5,-84 353.5,-78 359.5,-72 365.5,-72 365.5,-72 483.5,-72 483.5,-72 489.5,-72 495.5,-78 495.5,-84 495.5,-84 495.5,-96 495.5,-96 495.5,-102 489.5,-108 483.5,-108"/>
<text text-anchor="middle" x="424.5" y="-87.5" font-family="sans" font-size="10.00" fill="#000000">interactive_heatmap_plot</text>
</g>
<!-- 10&#45;&gt;11 -->
<g id="edge23" class="edge">
<title>10&#45;&gt;11</title>
<path fill="none" stroke="#c0c0c0" stroke-width="2" d="M424.5,-143.8314C424.5,-136.131 424.5,-126.9743 424.5,-118.4166"/>
<polygon fill="#c0c0c0" stroke="#c0c0c0" stroke-width="2" points="428.0001,-118.4132 424.5,-108.4133 421.0001,-118.4133 428.0001,-118.4132"/>
</g>
<!-- 11&#45;&gt;0 -->
<g id="edge9" class="edge">
<title>11&#45;&gt;0</title>
<path fill="none" stroke="#c0c0c0" stroke-width="2" d="M389.9291,-71.8314C372.0815,-62.4516 350.1226,-50.9112 331.12,-40.9244"/>
<polygon fill="#c0c0c0" stroke="#c0c0c0" stroke-width="2" points="332.5401,-37.7168 322.0598,-36.1628 329.2836,-43.9132 332.5401,-37.7168"/>
</g>
</g>
</svg>
